<?xml version="1.0" encoding="utf-8"?>
<!-- Generator: Adobe Illustrator 19.1.0, SVG Export Plug-In . SVG Version: 6.00 Build 0)  -->
<svg version="1.1" xmlns="http://www.w3.org/2000/svg" xmlns:xlink="http://www.w3.org/1999/xlink" x="0px" y="0px"
	 viewBox="0 0 639.7 540.8" style="enable-background:new 0 0 639.7 540.8;" xml:space="preserve">
<style type="text/css">
	.st0{fill:#FFC59C;}
	.st1{fill:#DCDCDC;}
	.st2{fill:#FEC8AA;}
	.st3{fill:#E8B294;}
	.st4{fill:#D09A7C;}
	.st5{fill:#F1BB9D;}
	.st6{fill:#B98365;}
	.st7{fill:#CB9577;}
	.st8{fill:#E3AD8F;}
	.st9{fill:#DBA587;}
	.st10{fill:#F8C2A4;}
	.st11{fill:#FFD3B5;}
	.st12{fill:#FFD0B2;}
	.st13{fill:#F7C1A3;}
	.st14{fill:#C28C6E;}
	.st15{fill:#005BAC;}
	.st16{fill:#71D7FF;}
	.st17{fill:#65CBFF;}
	.st18{fill:#49AFFF;}
	.st19{fill:#3096E8;}
	.st20{fill:#197FD1;}
	.st21{fill:#2187D9;}
	.st22{fill:#AA7456;}
	.st23{fill:#BA8466;}
	.st24{fill:#EFB99B;}
	.st25{fill:#EAB496;}
	.st26{fill:#C18B6D;}
	.st27{fill:#D49E80;}
	.st28{fill:#D59F81;}
	.st29{fill:#D9A385;}
	.st30{fill:#0B71C3;}
	.st31{fill:#DBC775;}
	.st32{fill:#F9DF6E;}
	.st33{fill:#D89032;}
	.st34{fill:#EFAC6A;}
	.st35{fill:#DB9D5A;}
	.st36{fill:#D39590;}
	.st37{fill:#F2D144;}
	.st38{fill:#998B4F;}
	.st39{fill:#BF8F56;}
	.st40{fill:#C17465;}
	.st41{fill:#DB5D31;}
	.st42{fill:#DB4831;}
	.st43{fill:#D16B50;}
	.st44{fill:#F7F0D2;}
	.st45{fill:#FDC7A9;}
	.st46{fill:#F2C7A7;}
	.st47{fill:#CC9678;}
	.st48{fill:#CC6D92;}
	.st49{fill:#C1859D;}
	.st50{fill:#D34071;}
	.st51{fill:#FFC69D;}
	.st52{fill:#82722E;}
	.st53{fill:#B2A157;}
	.st54{fill:#FFE6BE;}
	.st55{fill:#FFD0A7;}
	.st56{fill:#D89D74;}
	.st57{fill:#FFDAB2;}
	.st58{fill:#C48A61;}
	.st59{fill:#965B32;}
	.st60{fill:#E8E5D9;}
	.st61{fill:#F7FFEF;}
	.st62{fill:#BF8F56;stroke:#000000;stroke-width:0.2;stroke-miterlimit:10;}
	.st63{fill:#F4DBCB;}
	.st64{fill:none;}
	.st65{fill:#976DA0;}
	.st66{fill:#D3A9BC;}
	.st67{fill:#D5B92A;}
	.st68{fill:#CEE0A4;}
	.st69{fill:#EFBB8E;}
	.st70{fill:#FFA53A;}
	.st71{fill:#FFB145;}
	.st72{fill:#FF8015;}
	.st73{fill:#FF9025;}
	.st74{fill:#FF891E;}
	.st75{fill:#FF7005;}
	.st76{fill:#CC6D6C;}
	.st77{fill:#F55900;}
	.st78{fill:#FC6100;}
	.st79{fill:#CE987A;}
	.st80{fill:#DAA486;}
	.st81{fill:#996345;}
	.st82{opacity:0.2;fill:#B55E00;}
	.st83{fill:#C9B0D1;}
	.st84{fill:#FFCEB0;}
	.st85{fill:#BF896B;}
	.st86{fill:#DCA688;}
	.st87{fill:#BD8769;}
	.st88{fill:#D6A082;}
	.st89{fill:#A3A3E5;}
	.st90{fill:#606096;}
	.st91{fill:#F0BA9C;}
	.st92{fill:#BE886A;}
	.st93{fill:#DFA98B;}
	.st94{fill:#FFCFB1;}
	.st95{fill:#F4BEA0;}
	.st96{fill:#DDA789;}
	.st97{fill:#6A6ACE;}
	.st98{fill:#86ECFF;}
	.st99{fill:#67CDFF;}
	.st100{fill:#A4FFFF;}
	.st101{fill:#73D9FF;}
	.st102{fill:#FFDBF3;}
</style>
<g id="RIGHT_FOOT">
</g>
<g id="RIGHT_LEG_CALF">
</g>
<g id="RIGHT_LEG_THIGH">
</g>
<g id="RIGHT_HAND">
</g>
<g id="RIGHT_ARM">
</g>
<g id="LEFT_FOOT_1_">
</g>
<g id="LEFT_LEG_CALF">
</g>
<g id="LEFT_LEG_THIGH">
	<g id="LEFT_FOOT">
	</g>
</g>
<g id="TORSO">
</g>
<g id="LEFT_HAND">
</g>
<g id="LEFT_ARM">
	<g>
		<polygon class="st79" points="351.4,183.7 350.1,206.2 319.3,186.4 		"/>
		<polygon class="st14" points="321,210.3 350.1,206.2 321.3,230.8 		"/>
		<polygon class="st14" points="329.6,160.4 351.4,183.7 319.3,186.4 		"/>
		<polygon class="st79" points="343.2,223.2 350.1,206.2 321.3,230.8 		"/>
		<polygon class="st80" points="343.2,223.2 341.3,254.4 321.3,230.8 		"/>
		<polygon class="st81" points="323.7,259.2 341.3,254.4 321.3,230.8 		"/>
		<polygon class="st80" points="323.7,259.2 341.3,254.4 343.6,276.7 		"/>
		<polygon class="st7" points="323.7,259.2 322.2,288.9 343.6,276.7 		"/>
		<polygon class="st8" points="341.1,313.2 322.2,288.9 343.6,276.7 		"/>
		<polygon class="st13" points="341.1,313.2 322.2,288.9 328.1,322.8 		"/>
		<polygon class="st12" points="341.1,313.2 340.3,324.1 328.1,322.8 		"/>
		<polygon class="st81" points="321,210.3 350.1,206.2 319.3,186.4 		"/>
		<polygon class="st13" points="324,367.9 337.7,359 331.2,334.3 327.9,349.8 		"/>
		<polygon class="st7" points="313,345 331.2,334.3 327.9,349.8 		"/>
		<polygon class="st13" points="313,345 331.2,334.3 328.1,322.8 		"/>
		<polygon class="st12" points="340.3,324.1 337.7,359 328.1,322.8 		"/>
		<polygon class="st9" points="361.7,257.6 332.2,257.9 362.9,294.4 		"/>
		<polygon class="st3" points="292.2,151.1 290.4,162.8 299.2,155.2 		"/>
		<polygon class="st4" points="315.3,166.3 325.1,183.3 326.8,165.9 		"/>
		<polygon class="st5" points="315.3,166.3 285.8,201.8 290.4,162.8 		"/>
		<polygon class="st6" points="315.3,166.3 315,211.5 302.4,172.4 		"/>
		<polygon class="st7" points="315.3,166.3 315,211.5 325.1,183.3 		"/>
		<polygon class="st7" points="302.4,172.4 285.8,201.8 315,211.5 		"/>
		<polygon class="st8" points="284.5,150.8 278.4,150.1 277.9,180.3 		"/>
		<polygon class="st8" points="278.4,150.1 268.6,150.4 277.9,180.3 		"/>
		<polygon class="st4" points="268.6,150.4 249.3,169.7 277.9,180.3 		"/>
		<polygon class="st10" points="249.3,169.7 256.4,178.6 277.9,180.3 		"/>
		<polygon class="st9" points="268.6,150.4 247,162 249.3,169.7 		"/>
		<polygon class="st8" points="249.3,169.7 233.6,187.7 256.4,178.6 		"/>
		<polygon class="st10" points="247,162 235.6,179.1 249.3,169.7 		"/>
		<polygon class="st11" points="235.6,179.1 233.6,187.7 249.3,169.7 		"/>
		<polygon class="st8" points="237.9,190.4 245.3,181.3 256.4,178.6 		"/>
		<polygon class="st8" points="256.4,178.6 254.4,190.7 245.3,181.3 		"/>
		<polygon class="st7" points="256.4,178.6 264.7,190.1 254.4,190.7 		"/>
		<polygon class="st11" points="256.4,178.6 277.9,180.3 264.7,190.1 		"/>
		<polygon class="st15" points="264.7,190.1 233.6,187.7 264.6,203.3 		"/>
		<polygon class="st7" points="245.3,181.3 233.6,187.7 254.4,190.7 		"/>
		<polygon class="st16" points="330.5,160.1 326.8,165.9 335.3,179 		"/>
		<polygon class="st17" points="326.8,165.9 325.1,183.3 335.3,179 		"/>
		<polygon class="st18" points="325.1,183.3 333.2,202.6 335.3,179 		"/>
		<polygon class="st16" points="292.2,151.1 284.5,150.8 290.4,162.8 		"/>
		<polygon class="st17" points="284.5,150.8 277.9,180.3 290.4,162.8 		"/>
		<polygon class="st18" points="290.4,162.8 285.8,201.8 277.9,180.3 		"/>
		<polygon class="st19" points="277.9,180.3 264.7,190.1 285.8,201.8 		"/>
		<polygon class="st20" points="264.6,203.3 227.8,210.4 233.6,187.7 		"/>
		<polygon class="st21" points="264.6,203.3 260.4,218.5 227.8,210.4 		"/>
		<polygon class="st21" points="325.1,183.3 326.1,213.5 333.2,202.6 		"/>
		<polygon class="st19" points="325.1,183.3 315,211.5 326.1,213.5 		"/>
		<polygon class="st19" points="315,211.5 281.2,215.3 285.8,201.8 		"/>
		<polygon class="st21" points="285.8,201.8 264.7,190.1 281.2,215.3 		"/>
		<polygon class="st20" points="264.7,190.1 264.6,203.3 281.2,215.3 		"/>
		<polygon class="st20" points="326.1,213.5 316.9,220.7 281.2,215.3 		"/>
		<polygon class="st21" points="316.9,220.7 308.9,224.8 281.2,215.3 		"/>
		<polygon class="st20" points="281.2,215.3 279.8,223.1 308.9,224.8 		"/>
		<polygon class="st21" points="281.2,215.3 260.4,218.5 279.8,223.1 		"/>
		<polygon class="st15" points="264.6,203.3 281.2,215.3 260.4,218.5 		"/>
		<polygon class="st15" points="315,211.5 281.2,215.3 326.1,213.5 		"/>
		<polygon class="st24" points="227.8,210.4 234.7,222.5 260.4,218.5 		"/>
		<polygon class="st25" points="260.4,218.5 260.4,232.8 234.7,222.5 		"/>
		<polygon class="st26" points="260.4,218.5 279.8,223.1 260.4,232.8 		"/>
		<polygon class="st27" points="279.8,223.1 296.2,235.1 260.4,232.8 		"/>
		<polygon class="st14" points="279.8,223.1 308.9,224.8 296.2,235.1 		"/>
		<polygon class="st28" points="308.9,224.8 309.4,235.8 296.2,235.1 		"/>
		<polygon class="st12" points="361.9,228.7 371.9,238.9 356.5,247.2 		"/>
		<polygon class="st13" points="361.9,228.7 352.1,229.6 356.5,247.2 		"/>
		<polygon class="st25" points="352.1,229.6 342.2,225.7 356.5,247.2 		"/>
		<polygon class="st29" points="342.2,225.7 309.4,224.2 356.5,247.2 		"/>
		<polygon class="st15" points="309.4,224.2 298.6,232.4 296.2,223.3 		"/>
		<polygon class="st30" points="296.2,235.2 260.4,232.3 298.6,244.2 		"/>
		<polygon class="st15" points="260.4,232.3 286.2,259.7 298.6,244.2 		"/>
		<polygon class="st30" points="260.4,232.3 274.1,271.9 286.2,259.7 		"/>
		<polygon class="st21" points="260.4,232.3 244.1,249.3 274.1,271.9 		"/>
		<polygon class="st20" points="274.1,260 266.2,267.7 244.1,237.4 		"/>
		<polygon class="st15" points="244.1,237.4 257.5,269.4 266.2,267.7 		"/>
		<polygon class="st15" points="274.1,260 266.2,267.7 276.3,268.9 		"/>
		<polygon class="st19" points="260.4,232.3 234.7,219.1 253.9,239 		"/>
		<polygon class="st18" points="234.7,219.1 226.6,230 253.9,239 		"/>
		<polygon class="st19" points="226.6,230 244.1,249.3 253.9,239 		"/>
		<polygon class="st14" points="309.4,224.2 329.1,261.9 298.6,232.4 		"/>
		<polygon class="st26" points="298.6,232.4 286.2,247.8 329.1,261.9 		"/>
		<polyline class="st25" points="286.2,247.8 285.9,248.1 274.1,260 329.4,261.9 		"/>
		<polygon class="st27" points="329.1,261.9 297.5,271.1 274.1,260 		"/>
		<polygon class="st10" points="329.1,261.9 356.5,247.2 309.4,224.2 		"/>
		<polygon class="st14" points="274.1,260 276.3,268.9 297.5,271.1 		"/>
		<polygon class="st23" points="329.1,261.9 331.9,268.3 306.9,268.3 		"/>
		<polygon class="st22" points="329.1,261.9 352.6,263.9 331.9,268.3 		"/>
		<polygon class="st8" points="356.5,247.2 352.6,263.9 329.1,261.9 		"/>
		<polygon class="st29" points="356.5,247.2 376.3,250.9 352.6,263.9 		"/>
		<polygon class="st8" points="371.9,238.9 376.3,250.9 356.5,247.2 		"/>
		<polygon class="st14" points="376.3,250.9 352.8,261.7 352.6,263.9 		"/>
		<polygon class="st5" points="376.3,250.9 362.9,294.4 361.7,257.6 		"/>
		<polygon class="st4" points="361.7,257.6 352.8,261.7 332.2,257.9 		"/>
		<polygon class="st4" points="362.9,294.4 387,309.2 371.1,319.2 		"/>
		<polygon class="st5" points="362.9,294.4 377.8,276.3 387,309.2 		"/>
		<polygon class="st11" points="377.8,276.3 361.7,257.6 376.3,250.9 		"/>
		<polygon class="st10" points="376.3,250.9 362.9,294.4 377.8,276.3 		"/>
		<polygon class="st82" points="361.7,257.6 332.2,257.9 362.9,294.4 		"/>
		<polygon class="st82" points="361.9,228.7 371.9,238.9 356.5,247.2 		"/>
		<polygon class="st82" points="361.9,228.7 352.1,229.6 356.5,247.2 		"/>
		<polygon class="st82" points="352.1,229.6 342.2,225.7 356.5,247.2 		"/>
		<polygon class="st82" points="342.2,225.7 309.4,224.2 356.5,247.2 		"/>
		<polygon class="st82" points="309.4,224.2 329.1,261.9 298.6,232.4 		"/>
		<polygon class="st82" points="329.1,261.9 356.5,247.2 309.4,224.2 		"/>
		<polygon class="st82" points="356.5,247.2 352.6,263.9 329.1,261.9 		"/>
		<polygon class="st82" points="356.5,247.2 376.3,250.9 352.6,263.9 		"/>
		<polygon class="st82" points="371.9,238.9 376.3,250.9 356.5,247.2 		"/>
		<polygon class="st82" points="376.3,250.9 362.9,294.4 361.7,257.6 		"/>
		<polygon class="st82" points="361.7,257.6 352.8,261.7 332.2,257.9 		"/>
		<polygon class="st82" points="377.8,276.3 361.7,257.6 376.3,250.9 		"/>
		<polygon class="st82" points="376.3,250.9 362.9,294.4 377.8,276.3 		"/>
		<polygon class="st31" points="387,309.2 396.7,311.7 375.3,322 		"/>
		<polygon class="st32" points="387,309.2 402.9,303.7 396.7,311.7 		"/>
		<polygon class="st32" points="387,309.2 371.1,319.2 375.3,322 		"/>
		<polygon class="st33" points="375.3,322 394.4,339.3 396.7,311.7 		"/>
		<polygon class="st31" points="375.3,322 369.3,324.7 371.1,319.2 		"/>
		<polygon class="st34" points="396.7,311.7 407.6,311.2 394.4,339.3 		"/>
		<polygon class="st35" points="407.6,311.2 414.5,299.8 396.7,311.7 		"/>
		<polygon class="st36" points="414.5,299.8 425,307.2 407.6,311.2 		"/>
		<polygon class="st37" points="396.7,311.7 403.6,307.1 402.9,303.7 		"/>
		<polygon class="st33" points="402.9,303.7 414.5,299.8 403.6,307.1 		"/>
		<polygon class="st38" points="383.9,329.6 369.3,324.7 375.3,322 		"/>
		<polygon class="st39" points="383.9,329.6 370.9,337 369.3,324.7 		"/>
		<polygon class="st40" points="383.9,329.6 378.6,344 370.9,337 		"/>
		<polygon class="st41" points="383.9,329.6 387.7,344.1 378.6,344 		"/>
		<polygon class="st42" points="383.9,329.6 394.4,339.3 387.7,344.1 		"/>
		<polygon class="st43" points="407.6,311.2 421.8,319.8 394.4,339.3 		"/>
		<polygon class="st41" points="407.6,311.2 425,307.2 421.8,319.8 		"/>
		<g>
			<polygon class="st51" points="313.8,177.1 299.1,157.7 299,171.1 			"/>
			<polygon class="st52" points="326.3,122.2 342.2,130 341.7,115.1 			"/>
			<polygon class="st53" points="326.3,122.2 313.2,107.2 341.7,115.1 			"/>
			<polygon class="st53" points="326.3,122.2 314.1,127.3 313.2,107.2 			"/>
			<polygon class="st38" points="313.2,107.2 295.6,127.4 314.1,127.3 			"/>
			<polygon class="st54" points="299.1,157.7 305.9,141.3 316.7,155.8 			"/>
			<polygon class="st55" points="299.1,157.7 313.2,176.9 316.7,155.8 			"/>
			<polygon class="st55" points="299.1,157.7 298.6,142.7 305.9,141.3 			"/>
			<polygon class="st54" points="316.7,155.8 326.4,147.7 315.3,144.3 305.9,141.3 			"/>
			<polygon class="st51" points="326.4,147.7 321.2,140.1 315.3,144.3 			"/>
			<polygon class="st56" points="314.8,138.5 321.2,140.1 315.3,144.3 			"/>
			<polygon class="st54" points="326.4,147.7 331.6,153.8 316.7,155.8 			"/>
			<polygon class="st54" points="331.6,153.8 332.7,160.3 324.9,161.5 			"/>
			<polygon class="st54" points="331.6,153.8 316.7,155.8 324.9,161.5 			"/>
			<polygon class="st54" points="324.9,161.5 321,166.6 313.2,176.9 316.7,155.8 			"/>
			<polygon class="st56" points="321,166.6 332.7,160.3 324.9,161.5 320.7,163.5 			"/>
			<polygon class="st56" points="332.7,160.3 321,166.6 331.4,166 333.3,163.5 			"/>
			<polygon class="st57" points="326.1,169.6 321,166.6 331.4,166 			"/>
			<polygon class="st51" points="337.8,161.4 332.7,160.3 333.3,163.5 331.4,166 328.7,177.4 			"/>
			<polygon class="st55" points="313.2,176.9 321,166.6 326.1,169.6 331.4,166 328.7,177.4 			"/>
			<polygon class="st58" points="326.4,147.7 327.3,137.8 321.2,140.1 			"/>
			<polygon class="st55" points="332.7,160.3 335.6,154.6 331.6,153.8 			"/>
			<polygon class="st58" points="327.3,137.8 331.6,153.8 326.4,147.7 			"/>
			<polygon class="st59" points="327.3,137.8 314.8,138.5 321.2,140.1 			"/>
			<polygon class="st54" points="327.3,137.8 326.3,122.2 314.1,127.3 			"/>
			<polygon class="st51" points="314.8,138.5 314.1,127.3 327.3,137.8 			"/>
			<polygon class="st56" points="305.9,141.3 314.1,127.3 315.3,144.3 			"/>
			<polygon class="st53" points="295.6,127.4 314.1,127.3 305.9,141.3 			"/>
			<polygon class="st53" points="295.6,127.4 290.5,153.8 298.6,142.7 			"/>
			<polygon class="st52" points="295.6,127.4 298.6,142.7 305.9,141.3 			"/>
			<polygon class="st52" points="290.5,153.8 299.1,157.7 298.6,142.7 			"/>
			<polygon class="st55" points="327.3,137.8 342.5,141 342.2,130 326.3,122.2 			"/>
			<polygon class="st54" points="327.3,137.8 331.6,153.8 335.6,154.6 333.9,146.4 332.3,138.8 			"/>
			<polygon class="st59" points="332.3,138.8 342.5,141 333.9,146.4 			"/>
			<polygon class="st51" points="333.9,146.4 338.3,149.3 342.5,141 			"/>
			<polygon class="st51" points="337.8,161.4 338.3,149.3 332.7,160.3 			"/>
			<polygon class="st55" points="335.6,154.6 338.3,149.3 333.9,146.4 			"/>
			<polygon class="st53" points="290.5,153.8 299,171.1 299.1,157.7 			"/>
			<polygon class="st53" points="295.6,127.4 304.3,117.3 287.4,125.7 			"/>
			<polygon class="st38" points="295.6,127.4 290.5,153.8 287.4,125.7 			"/>
			<polygon class="st57" points="326.1,169.6 313.2,176.9 328.7,177.4 			"/>
		</g>
		<polygon class="st12" points="311.4,227.3 321.3,237.5 306,245.9 		"/>
		<polygon class="st13" points="311.4,227.3 301.6,228.2 306,245.9 		"/>
		<polygon class="st55" points="301.6,228.2 291.7,224.4 306,245.9 		"/>
		<polygon class="st55" points="291.7,224.4 258.9,222.8 306,245.9 		"/>
		<polygon class="st10" points="258.9,222.8 278.6,260.5 248.1,231 		"/>
		<polygon class="st9" points="258.9,222.8 224.3,226.5 224.7,227.1 237.3,246 248.1,231 		"/>
		<polygon class="st27" points="248.1,231 235.7,246.4 278.6,260.5 		"/>
		<polyline class="st25" points="235.7,246.4 235.4,246.7 214.2,252.1 278.9,260.5 		"/>
		<polygon class="st27" points="278.6,260.5 247,269.8 214.2,252.1 		"/>
		<polygon class="st10" points="278.6,260.5 306,245.9 258.9,222.8 		"/>
		<polygon class="st14" points="214.2,252.1 225.8,266.5 247,269.8 		"/>
		<polygon class="st23" points="278.6,260.5 281.4,266.9 256.4,266.9 		"/>
		<polygon class="st22" points="278.6,260.5 302,262.5 281.4,266.9 		"/>
		<polygon class="st8" points="306,245.9 302,262.5 278.6,260.5 		"/>
		<polygon class="st29" points="306,245.9 329.8,250.3 302,262.5 		"/>
		<polygon class="st55" points="321.3,237.5 329.8,250.3 306,245.9 		"/>
		<polygon class="st14" points="329.8,250.3 309.3,266.2 302,262.5 		"/>
		<polygon class="st5" points="329.8,250.3 338.7,286.3 317,260.2 		"/>
		<polygon class="st9" points="317,260.2 322.9,282.4 338.7,286.3 		"/>
		<polygon class="st4" points="317,260.2 309.3,266.2 322.9,282.4 		"/>
		<polygon class="st4" points="338.7,286.3 373.6,291.3 373.1,310.4 		"/>
		<polygon class="st5" points="338.7,286.3 355.3,268.3 373.6,291.3 		"/>
		<polygon class="st11" points="355.3,268.3 345.8,258.3 329.8,250.3 		"/>
		<polygon class="st51" points="329.8,250.3 338.7,286.3 355.3,268.3 		"/>
		<polygon class="st83" points="240.6,187.7 247.7,170.1 248.6,170.3 		"/>
		<polygon class="st79" points="277.2,181.9 265.8,202.4 247.7,170.1 		"/>
		<polygon class="st14" points="238.3,193.3 265.8,202.4 229.1,212.7 		"/>
		<polygon class="st14" points="268.6,150.4 277.2,181.9 247.7,170.1 		"/>
		<polygon class="st79" points="251.9,215.3 265.8,202.4 229.1,212.7 		"/>
		<polygon class="st80" points="251.9,215.3 236.1,243.7 229.1,212.7 		"/>
		<polygon class="st7" points="218.3,240.4 203.5,267.6 227.9,265.6 		"/>
		<polygon class="st8" points="209.1,298.7 203.5,267.6 227.9,265.6 		"/>
		<polygon class="st13" points="209.1,298.7 203.5,267.6 193.2,302 		"/>
		<polygon class="st12" points="209.1,298.7 203.4,308.6 193.2,302 		"/>
		<polygon class="st5" points="238.3,193.3 265.8,202.4 247.7,170.1 		"/>
		<polygon class="st13" points="169.1,342.4 185.2,340.1 190.7,314.1 180.8,327.1 		"/>
		<polygon class="st7" points="169.9,316 190.7,314.1 180.8,327.1 		"/>
		<polygon class="st13" points="169.9,316 190.7,314.1 193.2,302 		"/>
		<polygon class="st12" points="203.4,308.6 185.2,340.1 193.2,302 		"/>
		<polygon class="st7" points="214.2,252.1 224.7,227.1 237.3,246 		"/>
		<polygon class="st80" points="218.3,240.4 236.1,243.7 227.9,265.6 		"/>
		<polygon class="st48" points="372.4,290.1 401.6,304.1 390.5,276.7 		"/>
		<polygon class="st70" points="390.5,276.7 417.2,284.3 408.1,258.6 		"/>
		<polygon class="st71" points="408.1,258.6 415.7,262 417.2,284.3 		"/>
		<polygon class="st71" points="390.5,276.7 417.2,284.3 406.5,299.3 		"/>
		<polygon class="st72" points="390.5,276.7 406.5,299.3 401.6,304.1 		"/>
		<polygon class="st75" points="372.4,290.1 401.6,304.1 370.6,314.4 		"/>
		<polygon class="st78" points="370.6,314.4 387.8,328.2 378.7,310.6 		"/>
		<polygon class="st78" points="378.7,310.6 398.6,314.2 401.6,304.1 		"/>
		<polygon class="st48" points="378.7,310.6 398.6,314.2 387.8,328.2 		"/>
		<polygon class="st5" points="218.3,240.4 236.1,243.7 229.1,212.7 		"/>
	</g>
</g>
<g id="pencil">
</g>
</svg>
