<?xml version="1.0" encoding="utf-8"?>
<!-- Generator: Adobe Illustrator 19.1.0, SVG Export Plug-In . SVG Version: 6.00 Build 0)  -->
<svg version="1.1" xmlns="http://www.w3.org/2000/svg" xmlns:xlink="http://www.w3.org/1999/xlink" x="0px" y="0px"
	 viewBox="0 0 639.7 540.8" style="enable-background:new 0 0 639.7 540.8;" xml:space="preserve">
<style type="text/css">
	.st0{fill:#FFC59C;}
	.st1{fill:#DCDCDC;}
	.st2{fill:#FEC8AA;}
	.st3{fill:#E8B294;}
	.st4{fill:#D09A7C;}
	.st5{fill:#F1BB9D;}
	.st6{fill:#B98365;}
	.st7{fill:#CB9577;}
	.st8{fill:#E3AD8F;}
	.st9{fill:#DBA587;}
	.st10{fill:#F8C2A4;}
	.st11{fill:#FFD3B5;}
	.st12{fill:#FFD0B2;}
	.st13{fill:#F7C1A3;}
	.st14{fill:#C28C6E;}
	.st15{fill:#005BAC;}
	.st16{fill:#71D7FF;}
	.st17{fill:#65CBFF;}
	.st18{fill:#49AFFF;}
	.st19{fill:#3096E8;}
	.st20{fill:#197FD1;}
	.st21{fill:#2187D9;}
	.st22{fill:#AA7456;}
	.st23{fill:#BA8466;}
	.st24{fill:#EFB99B;}
	.st25{fill:#EAB496;}
	.st26{fill:#C18B6D;}
	.st27{fill:#D49E80;}
	.st28{fill:#D59F81;}
	.st29{fill:#D9A385;}
	.st30{fill:#0B71C3;}
	.st31{fill:#DBC775;}
	.st32{fill:#F9DF6E;}
	.st33{fill:#D89032;}
	.st34{fill:#EFAC6A;}
	.st35{fill:#DB9D5A;}
	.st36{fill:#D39590;}
	.st37{fill:#F2D144;}
	.st38{fill:#998B4F;}
	.st39{fill:#BF8F56;}
	.st40{fill:#C17465;}
	.st41{fill:#DB5D31;}
	.st42{fill:#DB4831;}
	.st43{fill:#D16B50;}
	.st44{fill:#F7F0D2;}
	.st45{fill:#FDC7A9;}
	.st46{fill:#F2C7A7;}
	.st47{fill:#CC9678;}
	.st48{fill:#CC6D92;}
	.st49{fill:#C1859D;}
	.st50{fill:#D34071;}
	.st51{fill:#FFC69D;}
	.st52{fill:#82722E;}
	.st53{fill:#B2A157;}
	.st54{fill:#FFE6BE;}
	.st55{fill:#FFD0A7;}
	.st56{fill:#D89D74;}
	.st57{fill:#FFDAB2;}
	.st58{fill:#C48A61;}
	.st59{fill:#965B32;}
	.st60{fill:#E8E5D9;}
	.st61{fill:#F7FFEF;}
	.st62{fill:#BF8F56;stroke:#000000;stroke-width:0.2;stroke-miterlimit:10;}
	.st63{fill:#F4DBCB;}
	.st64{fill:none;}
	.st65{fill:#976DA0;}
	.st66{fill:#D3A9BC;}
	.st67{fill:#D5B92A;}
	.st68{fill:#CEE0A4;}
	.st69{fill:#EFBB8E;}
	.st70{fill:#FFA53A;}
	.st71{fill:#FFB145;}
	.st72{fill:#FF8015;}
	.st73{fill:#FF9025;}
	.st74{fill:#FF891E;}
	.st75{fill:#FF7005;}
	.st76{fill:#CC6D6C;}
	.st77{fill:#F55900;}
	.st78{fill:#FC6100;}
	.st79{fill:#CE987A;}
	.st80{fill:#DAA486;}
	.st81{fill:#996345;}
	.st82{opacity:0.2;fill:#B55E00;}
	.st83{fill:#C9B0D1;}
	.st84{fill:#FFCEB0;}
	.st85{fill:#BF896B;}
	.st86{fill:#DCA688;}
	.st87{fill:#BD8769;}
	.st88{fill:#D6A082;}
	.st89{fill:#A3A3E5;}
	.st90{fill:#606096;}
	.st91{fill:#F0BA9C;}
	.st92{fill:#BE886A;}
	.st93{fill:#DFA98B;}
	.st94{fill:#FFCFB1;}
	.st95{fill:#F4BEA0;}
	.st96{fill:#DDA789;}
	.st97{fill:#6A6ACE;}
	.st98{fill:#86ECFF;}
	.st99{fill:#67CDFF;}
	.st100{fill:#A4FFFF;}
	.st101{fill:#73D9FF;}
	.st102{fill:#FFDBF3;}
</style>
<g id="RIGHT_FOOT">
</g>
<g id="RIGHT_LEG_CALF">
</g>
<g id="RIGHT_LEG_THIGH">
</g>
<g id="RIGHT_HAND">
</g>
<g id="RIGHT_ARM">
</g>
<g id="LEFT_FOOT_1_">
</g>
<g id="LEFT_LEG_CALF">
</g>
<g id="LEFT_LEG_THIGH">
	<g id="LEFT_FOOT">
	</g>
</g>
<g id="TORSO">
</g>
<g id="LEFT_HAND">
</g>
<g id="LEFT_ARM">
	<g>
		<path class="st84" d="M538.1,162.2c4.6-4.5,5.6-12.1,1.2-17s-11.4-4.9-15.6,0.1c-4.2,5-5.1,9.9-1.1,15.2S533.5,166.7,538.1,162.2z
			"/>
		<polygon class="st84" points="530.9,166.6 521,138.6 525.6,166.6 		"/>
		<polygon class="st10" points="546.8,145.5 521,138.6 542.3,164.1 		"/>
		<polygon class="st24" points="530.9,166.6 521,138.6 542.3,164.1 		"/>
		<polygon class="st12" points="537.2,173.3 531.9,181.5 525.6,166.6 		"/>
		<polygon class="st13" points="537.2,173.3 542.3,164.1 525.6,166.6 		"/>
		<polygon class="st29" points="525.6,166.6 519.3,188.1 528.5,156.9 		"/>
		<polygon class="st8" points="531.9,181.5 519.3,188.1 525.6,166.6 		"/>
		<polygon class="st4" points="519.3,188.1 509.9,158 528.5,156.9 		"/>
		<polygon class="st5" points="519.3,188.1 478.4,197 514.9,173.9 		"/>
		<polygon class="st9" points="514.9,173.9 495.2,167.8 478.4,197 		"/>
		<polygon class="st85" points="514.9,173.9 509.9,158 495.2,167.8 		"/>
		<polygon class="st4" points="478.4,197 464.3,235.6 450.9,224.7 		"/>
		<polygon class="st10" points="464.3,235.6 477.1,220.9 468.2,240.8 		"/>
		<polygon class="st11" points="477.1,220.9 500.2,208.1 519.3,188.1 		"/>
		<polygon class="st10" points="519.3,188.1 478.4,197 477.1,220.9 		"/>
		<polygon class="st32" points="464.3,235.6 471.9,247.9 465,244.9 		"/>
		<polygon class="st33" points="449.6,228.9 440.2,251 465,244.9 		"/>
		<polygon class="st31" points="449.6,229.3 445.5,224.8 450.9,224.7 		"/>
		<polygon class="st34" points="465,244.9 473,267.8 440.2,251 		"/>
		<polygon class="st35" points="473,267.8 476.3,268.3 465,244.9 		"/>
		<polygon class="st36" points="476.3,268.3 486,275.3 473,267.8 		"/>
		<polygon class="st37" points="465,244.9 469.8,254.3 471.9,247.9 		"/>
		<polygon class="st33" points="471.9,247.9 476.3,268.3 469.8,254.3 		"/>
		<polygon class="st38" points="450.3,243.1 445.5,224.8 449.6,229.3 		"/>
		<polygon class="st39" points="450.3,243.1 435.3,229.8 445.5,224.8 		"/>
		<polygon class="st40" points="450.3,243.1 431.3,238.6 435.3,229.8 		"/>
		<polygon class="st41" points="450.3,243.1 434,246.6 431.3,238.6 		"/>
		<polygon class="st43" points="473,267.8 469.3,282.1 440.2,251 		"/>
		<polygon class="st41" points="473,267.8 486,275.3 469.3,282.1 		"/>
		<polygon class="st25" points="478.4,197 477.1,220.9 464.3,235.6 		"/>
		<polygon class="st43" points="469.3,282.1 483.8,288.6 486,275.3 		"/>
		<path class="st84" d="M435.7,152.5c1.4-6.3-2-13.1-8.4-14.8s-12.2,2.2-12.9,8.7c-0.8,6.5,1.2,11,7.5,13.3
			C428.1,162,434.3,158.8,435.7,152.5z"/>
		<polygon class="st84" points="432.1,160.2 408.4,142.3 427.7,163.1 		"/>
		<polygon class="st24" points="432.1,160.2 408.4,142.3 440.3,151.8 		"/>
		<polygon class="st12" points="441.1,162.3 441.2,172 427.7,163.1 		"/>
		<polygon class="st13" points="441.1,162.3 440.3,151.8 427.7,163.1 		"/>
		<polygon class="st29" points="427.7,163.1 434.3,184.5 424.7,153.4 		"/>
		<polygon class="st8" points="441.2,172 434.3,184.5 427.7,163.1 		"/>
		<polygon class="st4" points="434.3,184.5 409.8,164.6 424.7,153.4 		"/>
		<polygon class="st5" points="434.3,184.5 405.1,214.5 422.8,175.1 		"/>
		<polygon class="st9" points="422.8,175.1 403,180.8 405.1,214.5 		"/>
		<polygon class="st85" points="422.8,175.1 409.8,164.6 403,180.8 		"/>
		<polygon class="st4" points="405.1,214.5 414.6,254.5 397.4,252.8 		"/>
		<polygon class="st11" points="417.2,235.2 429.4,211.7 434.3,184.5 		"/>
		<polygon class="st10" points="434.3,184.5 405.1,214.5 417.2,235.2 		"/>
		<polygon class="st25" points="405.1,214.5 417.2,235.2 414.6,254.5 		"/>
		<rect x="165.5" y="167.1" class="st1" width="429" height="7"/>
		<polygon class="st0" points="292.3,161.1 320.3,163.6 325.2,198.1 301,198.1 		"/>
		<polygon class="st22" points="289.8,163.1 239.7,120.1 300.2,147.5 		"/>
		<polygon class="st23" points="292.3,180.5 289.8,163.1 239.7,120.1 		"/>
		<polygon class="st8" points="300.2,147.5 246.4,111.3 239.7,120.1 		"/>
		<polygon class="st22" points="239.7,120.1 236.8,109.9 246.4,111.3 		"/>
		<polygon class="st23" points="239.7,120.1 232.1,117.6 236.8,109.9 		"/>
		<polygon class="st8" points="285.9,178.1 303,162.9 279.5,165.9 		"/>
		<polygon class="st5" points="279.5,165.9 279.7,158.9 303,162.9 		"/>
		<polygon class="st9" points="279.7,158.9 287.4,148.6 303,162.9 		"/>
		<polygon class="st4" points="287.4,148.6 300.2,147.5 303,162.9 		"/>
		<polygon class="st8" points="303,162.9 320.3,163.6 300.2,147.5 		"/>
		<polygon class="st4" points="193.3,107.6 202.1,119.8 225.7,113 210.8,110.6 		"/>
		<polygon class="st87" points="215.1,96.8 225.7,113 210.8,110.6 		"/>
		<polygon class="st24" points="215.1,96.8 225.7,113 236.8,109.9 		"/>
		<circle class="st64" cx="236.2" cy="115.5" r="5.4"/>
		<polygon class="st86" points="246.3,121.4 235.7,121 236.8,109.9 		"/>
		<circle class="st64" cx="236.2" cy="115.5" r="5.4"/>
		<polygon class="st12" points="246.3,121.4 235.7,121 236.8,109.9 		"/>
		<polygon class="st13" points="193.3,107.6 202.1,119.8 225.7,113 210.8,110.6 		"/>
		<polygon class="st7" points="215.1,96.8 225.7,113 210.8,110.6 		"/>
		<polygon class="st13" points="215.1,96.8 225.7,113 236.8,109.9 		"/>
		<polygon class="st12" points="235.7,121 202.1,119.8 236.8,109.9 		"/>
		<g>
			<polygon class="st3" points="325.2,198.1 344,175.9 323,190.3 			"/>
			<polygon class="st8" points="366.6,177.1 370.1,165.7 376.7,180.8 			"/>
			<polygon class="st7" points="366.6,177.1 362.2,160.4 370.1,165.7 			"/>
			<polygon class="st11" points="366.6,177.1 344,175.9 362.2,160.4 			"/>
			<polygon class="st7" points="376.7,180.8 378.1,170.9 370.1,165.7 			"/>
			<polygon class="st14" points="423.2,173.9 445.5,179.1 435.9,172.7 			"/>
			<polygon class="st7" points="414,166.8 420.8,162.4 424.4,165.1 			"/>
			<polygon class="st14" points="436.2,143.2 459.8,140.7 517.1,119.6 462.3,127.4 			"/>
			<polygon class="st24" points="436.2,143.2 437.2,132.3 462.3,127.4 			"/>
			<polygon class="st27" points="462.3,127.4 438.6,122.1 437.2,132.3 			"/>
			<polygon class="st14" points="462.3,127.4 463.8,117.2 438.6,122.1 			"/>
			<polygon class="st25" points="440.2,167.8 459.8,140.7 436.2,143.2 			"/>
			<polygon class="st24" points="440.2,167.8 460.7,160.8 459.8,140.7 			"/>
			<polygon class="st23" points="462.3,127.4 517.1,119.6 463.8,117.2 			"/>
			<polygon class="st13" points="460.7,160.8 515.8,139.8 528.5,156.9 			"/>
			<polygon class="st7" points="459.8,140.7 515.8,139.8 517.1,119.6 			"/>
			<polygon class="st29" points="460.7,160.8 515.8,139.8 459.8,140.7 			"/>
			<polygon class="st4" points="515.8,139.8 542.9,130.9 517.1,119.6 			"/>
			<polygon class="st5" points="515.8,139.8 546.8,145.5 528.5,156.9 			"/>
			<polygon class="st9" points="515.8,139.8 542.9,130.9 546.8,145.5 			"/>
		</g>
		<g>
			<polygon class="st51" points="300.1,172.3 312,192 313.4,180.1 			"/>
			<polygon class="st52" points="282.9,219.2 268.7,209.6 267.7,222.9 			"/>
			<polygon class="st53" points="282.9,219.2 293.7,234.7 267.7,222.9 			"/>
			<polygon class="st53" points="282.9,219.2 294.9,216.7 293.7,234.7 			"/>
			<polygon class="st38" points="293.7,234.7 312.3,219.5 294.9,216.7 			"/>
			<polygon class="st54" points="312,192 304,205.4 295.3,190.8 			"/>
			<polygon class="st55" points="312,192 300.7,172.5 295.3,190.8 			"/>
			<polygon class="st55" points="312,192 311,205.5 304,205.4 			"/>
			<polygon class="st54" points="295.3,190.8 285.3,196.4 295.4,201.3 304,205.4 			"/>
			<polygon class="st51" points="285.3,196.4 289.5,204.1 295.4,201.3 			"/>
			<polygon class="st56" points="295.3,206.5 289.5,204.1 295.4,201.3 			"/>
			<polygon class="st54" points="285.3,196.4 281,190.2 295.3,190.8 			"/>
			<polygon class="st54" points="281,190.2 280.6,184.1 288.2,184.4 			"/>
			<polygon class="st54" points="281,190.2 295.3,190.8 288.2,184.4 			"/>
			<polygon class="st54" points="288.2,184.4 292.3,180.5 300.7,172.5 295.3,190.8 			"/>
			<polygon class="st56" points="292.3,180.5 280.6,184.1 288.2,184.4 292.3,183.3 			"/>
			<polygon class="st56" points="280.6,184.1 292.3,180.5 282.5,179.3 280.4,181.2 			"/>
			<polygon class="st57" points="287.8,176.9 292.3,180.5 282.5,179.3 			"/>
			<polygon class="st51" points="276,182.3 280.6,184.1 280.4,181.2 282.5,179.3 286.2,169.5 			"/>
			<polygon class="st55" points="300.7,172.5 292.3,180.5 287.8,176.9 282.5,179.3 286.2,169.5 			"/>
			<polygon class="st58" points="285.3,196.4 283.5,205.1 289.5,204.1 			"/>
			<polygon class="st55" points="280.6,184.1 277.3,188.7 281,190.2 			"/>
			<polygon class="st58" points="283.5,205.1 281,190.2 285.3,196.4 			"/>
			<polygon class="st59" points="283.5,205.1 295.3,206.5 289.5,204.1 			"/>
			<polygon class="st54" points="283.5,205.1 282.9,219.2 294.9,216.7 			"/>
			<polygon class="st51" points="295.3,206.5 294.9,216.7 283.5,205.1 			"/>
			<polygon class="st56" points="304,205.4 294.9,216.7 295.4,201.3 			"/>
			<polygon class="st53" points="312.3,219.5 294.9,216.7 304,205.4 			"/>
			<polygon class="st53" points="312.3,219.5 319.8,196.9 311,205.5 			"/>
			<polygon class="st52" points="312.3,219.5 311,205.5 304,205.4 			"/>
			<polygon class="st52" points="319.8,196.9 312,192 311,205.5 			"/>
			<polygon class="st55" points="283.5,205.1 269.5,199.7 268.7,209.6 282.9,219.2 			"/>
			<polygon class="st54" points="283.5,205.1 281,190.2 277.3,188.7 278.2,196.4 278.9,203.3 			"/>
			<polygon class="st59" points="278.9,203.3 269.5,199.7 278.2,196.4 			"/>
			<polygon class="st51" points="278.2,196.4 274.3,193 269.5,199.7 			"/>
			<polygon class="st51" points="276,182.3 274.3,193 280.6,184.1 			"/>
			<polygon class="st55" points="277.3,188.7 274.3,193 278.2,196.4 			"/>
			<polygon class="st53" points="319.8,196.9 313.4,180.1 312,192 			"/>
			<polygon class="st53" points="312.3,219.5 303.1,227.2 319.8,222.5 			"/>
			<polygon class="st38" points="312.3,219.5 319.8,196.9 319.8,222.5 			"/>
			<polygon class="st52" points="324.7,210.1 319.8,196.9 319.8,222.5 			"/>
			<polygon class="st57" points="287.8,176.9 300.7,172.5 286.2,169.5 			"/>
		</g>
		<polyline class="st21" points="320.3,163.6 334.6,132.1 320.2,119.8 320.3,163.6 		"/>
		<polygon class="st10" points="334.6,165.9 344,175.9 362.2,160.4 		"/>
		<polygon class="st7" points="334.6,165.9 354.2,155.2 362.2,160.4 		"/>
		<polygon class="st11" points="334.6,165.9 323,190.3 344,175.9 		"/>
		<polyline class="st18" points="330,175.5 334.6,165.9 329.5,160.4 329.5,173.2 		"/>
		<polyline class="st18" points="301,162.5 305.6,152.9 300.5,147.4 300.5,160.2 		"/>
		<polyline class="st19" points="322.2,181.7 320.3,163.6 334.6,132.1 329.5,162.1 		"/>
		<polygon class="st20" points="329.5,160.4 334.6,132.1 348.9,138.1 		"/>
		<polygon class="st21" points="334.6,165.9 348.9,138.1 329.5,160.4 		"/>
		<polygon class="st19" points="334.6,165.9 354.2,155.2 366.6,132.1 348.9,138.1 		"/>
		<polygon class="st21" points="366.6,132.1 380.8,149 354.2,155.2 		"/>
		<polygon class="st18" points="380.8,149 378.1,170.9 354.2,155.2 		"/>
		<polygon class="st19" points="378.1,170.9 385.8,161.1 380.8,149 		"/>
		<polygon class="st17" points="385.8,161.1 406.9,152.2 396.9,132.1 		"/>
		<polygon class="st18" points="385.8,161.1 380.8,149 396.9,132.1 		"/>
		<polygon class="st19" points="380.8,149 396.9,132.1 385.8,113.1 		"/>
		<polygon class="st20" points="380.8,149 366.6,132.1 385.8,113.1 		"/>
		<polygon class="st21" points="385.8,113.1 372.2,110 366.6,132.1 		"/>
		<polygon class="st30" points="366.6,132.1 350.6,110.1 372.2,110 		"/>
		<polygon class="st15" points="350.6,110.1 320.2,119.8 334.6,132.1 		"/>
		<polygon class="st30" points="350.6,110.1 348.9,138.1 334.6,132.1 		"/>
		<polygon class="st21" points="366.6,132.1 350.6,110.1 348.9,138.1 		"/>
		<polygon class="st19" points="406.9,152.2 414,141.6 396.9,132.1 		"/>
		<polygon class="st21" points="414,141.6 415.9,125.4 396.9,132.1 		"/>
		<polygon class="st20" points="415.9,125.4 405.4,117.1 396.9,132.1 		"/>
		<polygon class="st21" points="405.4,117.1 385.8,113.1 396.9,132.1 		"/>
		<polygon class="st18" points="378.1,170.9 396.9,171.4 406.9,152.2 385.8,161.1 		"/>
		<polygon class="st13" points="396.9,171.4 415.5,167.9 424.8,147.5 		"/>
		<polygon class="st12" points="406.9,152.2 424.8,147.5 396.9,171.4 		"/>
		<polygon class="st13" points="414,141.6 424.8,147.5 406.9,152.2 		"/>
		<polygon class="st12" points="414,141.6 424.8,147.5 428.8,132.1 		"/>
		<polygon class="st5" points="414,141.6 428.8,132.1 415.9,125.4 		"/>
		<polygon class="st7" points="405.4,117.1 424.8,119.8 415.9,125.4 		"/>
		<polygon class="st8" points="415.9,125.4 424.8,119.8 428.8,132.1 		"/>
		<polygon class="st31" points="464.3,235.6 465,244.9 449.6,229.3 		"/>
		<polygon class="st10" points="464.3,235.6 450.9,224.7 449.6,229.3 		"/>
		<polygon class="st42" points="450.3,243.1 440.2,251 434,246.6 		"/>
		<polygon class="st17" points="424.8,147.5 436.2,143.2 428.8,132.1 		"/>
		<polygon class="st19" points="436.2,143.2 437.2,132.3 428.8,132.1 		"/>
		<polygon class="st21" points="437.2,132.3 438.6,122.1 428.8,132.1 		"/>
		<polygon class="st20" points="438.6,122.1 424.8,119.8 428.8,132.1 		"/>
		<polygon class="st18" points="415.5,167.9 440.2,167.8 436.2,143.2 424.8,147.5 		"/>
		<polygon class="st8" points="325.2,198.1 343.7,194.6 344,175.9 		"/>
		<polygon class="st8" points="343.7,194.6 354.2,195.8 344,175.9 		"/>
		<polygon class="st4" points="354.2,195.8 379.1,192.6 344,175.9 		"/>
		<polygon class="st10" points="379.1,192.6 366.6,177.1 344,175.9 		"/>
		<polygon class="st9" points="354.2,195.8 372.2,205.1 379.1,192.6 		"/>
		<polygon class="st8" points="379.1,192.6 391.4,198 366.6,177.1 		"/>
		<polygon class="st10" points="372.2,205.1 389.3,205.9 379.1,192.6 		"/>
		<polygon class="st11" points="389.3,205.9 391.4,198 379.1,192.6 		"/>
		<polygon class="st8" points="391.4,198 376.7,180.8 366.6,177.1 		"/>
		<polygon class="st12" points="389.3,205.9 412.1,211.2 391.4,198 		"/>
		<polygon class="st12" points="412.1,211.2 428.8,182.5 443,182.3 		"/>
		<polygon class="st13" points="412.1,211.2 422.6,212.6 443,182.3 		"/>
		<polygon class="st13" points="422.6,212.6 443,197.4 434.6,213.3 		"/>
		<polygon class="st8" points="422.6,212.6 443,197.4 443,182.3 		"/>
		<polygon class="st8" points="412.1,211.2 391.4,198 415.8,204.8 		"/>
		<polygon class="st7" points="391.4,198 422.7,193 415.8,204.8 		"/>
		<polygon class="st14" points="391.4,198 376.7,180.8 422.7,193 		"/>
		<polygon class="st12" points="428.8,182.5 423.2,173.9 420.8,180.4 		"/>
		<polygon class="st12" points="423.2,173.9 415.5,175.9 414,166.8 		"/>
		<polygon class="st13" points="428.8,182.5 445.5,179.1 443,182.3 		"/>
		<polygon class="st8" points="428.8,182.5 423.2,173.9 445.5,179.1 		"/>
		<polygon class="st8" points="420.8,180.4 415.5,175.9 423.2,173.9 		"/>
		<polygon class="st14" points="423.2,173.9 424.4,165.1 414,166.8 		"/>
		<polygon class="st22" points="424.4,165.1 433.2,164.2 445.5,179.1 		"/>
		<polygon class="st23" points="423.2,173.9 435.9,172.7 424.4,165.1 		"/>
		<polygon class="st31" points="400.1,277.6 409.4,281.5 397.7,258.2 		"/>
		<polygon class="st32" points="400.1,277.6 410,293 409.4,281.5 		"/>
		<polygon class="st32" points="400.1,277.6 392.7,258.2 397.7,258.2 		"/>
		<polygon class="st33" points="397.7,258.2 422.8,254.1 409.4,281.5 		"/>
		<polygon class="st31" points="397.7,258.2 394.3,251.8 392.7,258.2 		"/>
		<polygon class="st34" points="409.4,281.5 418,289 422.8,254.1 		"/>
		<polygon class="st35" points="418,289 417.3,304 409.4,281.5 		"/>
		<polygon class="st36" points="417.3,304 430,303.8 418,289 		"/>
		<polygon class="st37" points="409.4,281.5 412.4,290.2 410,293 		"/>
		<polygon class="st33" points="410,293 417.3,304 412.4,290.2 		"/>
		<polygon class="st38" points="408.8,256.5 394.3,251.8 397.7,258.2 		"/>
		<polygon class="st39" points="408.8,256.5 402.3,241.3 394.3,251.8 		"/>
		<polygon class="st40" points="408.8,256.5 412.5,239.6 402.3,241.3 		"/>
		<polygon class="st41" points="408.8,256.5 420,245.4 412.5,239.6 		"/>
		<polygon class="st42" points="408.8,256.5 422.8,254.1 420,245.4 		"/>
		<polygon class="st43" points="418,289 434.3,289.9 422.8,254.1 		"/>
		<polygon class="st41" points="418,289 430,303.8 434.3,289.9 		"/>
		<polygon class="st15" points="300.2,147.5 320.2,119.8 320.3,163.6 		"/>
		<polygon class="st16" points="323,190.3 330,175.5 322.2,181.7 		"/>
		<polygon class="st17" points="322.2,181.7 330,175.5 329.5,162.1 		"/>
		<polygon class="st16" points="294,177.3 301,162.5 293.2,168.7 		"/>
		<polygon class="st17" points="293.2,168.7 301,162.5 300.5,149.1 		"/>
	</g>
</g>
<g id="pencil">
</g>
</svg>
