<?xml version="1.0" encoding="utf-8"?>
<!-- Generator: Adobe Illustrator 19.1.0, SVG Export Plug-In . SVG Version: 6.00 Build 0)  -->
<svg version="1.1" xmlns="http://www.w3.org/2000/svg" xmlns:xlink="http://www.w3.org/1999/xlink" x="0px" y="0px"
	 viewBox="0 0 639.7 540.8" style="enable-background:new 0 0 639.7 540.8;" xml:space="preserve">
<style type="text/css">
	.st0{fill:#FFC59C;}
	.st1{fill:#DCDCDC;}
	.st2{fill:#FEC8AA;}
	.st3{fill:#E8B294;}
	.st4{fill:#D09A7C;}
	.st5{fill:#F1BB9D;}
	.st6{fill:#B98365;}
	.st7{fill:#CB9577;}
	.st8{fill:#E3AD8F;}
	.st9{fill:#DBA587;}
	.st10{fill:#F8C2A4;}
	.st11{fill:#FFD3B5;}
	.st12{fill:#FFD0B2;}
	.st13{fill:#F7C1A3;}
	.st14{fill:#C28C6E;}
	.st15{fill:#005BAC;}
	.st16{fill:#71D7FF;}
	.st17{fill:#65CBFF;}
	.st18{fill:#49AFFF;}
	.st19{fill:#3096E8;}
	.st20{fill:#197FD1;}
	.st21{fill:#2187D9;}
	.st22{fill:#AA7456;}
	.st23{fill:#BA8466;}
	.st24{fill:#EFB99B;}
	.st25{fill:#EAB496;}
	.st26{fill:#C18B6D;}
	.st27{fill:#D49E80;}
	.st28{fill:#D59F81;}
	.st29{fill:#D9A385;}
	.st30{fill:#0B71C3;}
	.st31{fill:#DBC775;}
	.st32{fill:#F9DF6E;}
	.st33{fill:#D89032;}
	.st34{fill:#EFAC6A;}
	.st35{fill:#DB9D5A;}
	.st36{fill:#D39590;}
	.st37{fill:#F2D144;}
	.st38{fill:#998B4F;}
	.st39{fill:#BF8F56;}
	.st40{fill:#C17465;}
	.st41{fill:#DB5D31;}
	.st42{fill:#DB4831;}
	.st43{fill:#D16B50;}
	.st44{fill:#F7F0D2;}
	.st45{fill:#FDC7A9;}
	.st46{fill:#F2C7A7;}
	.st47{fill:#CC9678;}
	.st48{fill:#CC6D92;}
	.st49{fill:#C1859D;}
	.st50{fill:#D34071;}
	.st51{fill:#FFC69D;}
	.st52{fill:#82722E;}
	.st53{fill:#B2A157;}
	.st54{fill:#FFE6BE;}
	.st55{fill:#FFD0A7;}
	.st56{fill:#D89D74;}
	.st57{fill:#FFDAB2;}
	.st58{fill:#C48A61;}
	.st59{fill:#965B32;}
	.st60{fill:#E8E5D9;}
	.st61{fill:#F7FFEF;}
	.st62{fill:#BF8F56;stroke:#000000;stroke-width:0.2;stroke-miterlimit:10;}
	.st63{fill:#F4DBCB;}
	.st64{fill:none;}
	.st65{fill:#976DA0;}
	.st66{fill:#D3A9BC;}
	.st67{fill:#D5B92A;}
	.st68{fill:#CEE0A4;}
	.st69{fill:#EFBB8E;}
	.st70{fill:#FFA53A;}
	.st71{fill:#FFB145;}
	.st72{fill:#FF8015;}
	.st73{fill:#FF9025;}
	.st74{fill:#FF891E;}
	.st75{fill:#FF7005;}
	.st76{fill:#CC6D6C;}
	.st77{fill:#F55900;}
	.st78{fill:#FC6100;}
	.st79{fill:#CE987A;}
	.st80{fill:#DAA486;}
	.st81{fill:#996345;}
	.st82{opacity:0.2;fill:#B55E00;}
	.st83{fill:#C9B0D1;}
	.st84{fill:#FFCEB0;}
	.st85{fill:#BF896B;}
	.st86{fill:#DCA688;}
	.st87{fill:#BD8769;}
	.st88{fill:#D6A082;}
	.st89{fill:#A3A3E5;}
	.st90{fill:#606096;}
	.st91{fill:#F0BA9C;}
	.st92{fill:#BE886A;}
	.st93{fill:#DFA98B;}
	.st94{fill:#FFCFB1;}
	.st95{fill:#F4BEA0;}
	.st96{fill:#DDA789;}
	.st97{fill:#6A6ACE;}
	.st98{fill:#86ECFF;}
	.st99{fill:#67CDFF;}
	.st100{fill:#A4FFFF;}
	.st101{fill:#73D9FF;}
	.st102{fill:#FFDBF3;}
</style>
<g id="RIGHT_FOOT">
</g>
<g id="RIGHT_LEG_CALF">
</g>
<g id="RIGHT_LEG_THIGH">
</g>
<g id="RIGHT_HAND">
</g>
<g id="RIGHT_ARM">
</g>
<g id="LEFT_FOOT_1_">
</g>
<g id="LEFT_LEG_CALF">
</g>
<g id="LEFT_LEG_THIGH">
	<g id="LEFT_FOOT">
	</g>
</g>
<g id="TORSO">
</g>
<g id="LEFT_HAND">
</g>
<g id="LEFT_ARM">
	<g>
		<polygon class="st4" points="368.7,233.1 399.2,239.1 387.1,254.7 		"/>
		<polygon class="st10" points="399.2,239.1 399.6,251.4 387.1,254.7 		"/>
		<polygon class="st9" points="368.7,233.1 391,224.5 399.2,239.1 		"/>
		<polygon class="st8" points="399.2,239.1 411.8,234.5 399.6,251.4 		"/>
		<polygon class="st10" points="391,224.5 410.2,226.5 399.2,239.1 		"/>
		<polygon class="st11" points="410.2,226.5 411.8,234.5 399.2,239.1 		"/>
		<polygon class="st8" points="411.8,234.5 409.8,248.4 399.6,251.4 		"/>
		<polygon class="st12" points="410.2,226.5 433.1,222.8 411.8,234.5 		"/>
		<polygon class="st12" points="433.1,222.8 447.8,252.4 461.9,253.5 		"/>
		<polygon class="st13" points="433.1,222.8 443.6,222.1 461.9,253.5 		"/>
		<polygon class="st13" points="443.6,222.1 462.9,238.5 455.6,222.2 		"/>
		<polygon class="st8" points="443.6,222.1 462.9,238.5 461.9,253.5 		"/>
		<polygon class="st8" points="433.1,222.8 411.8,234.5 436.4,229.4 		"/>
		<polygon class="st7" points="411.8,234.5 442.4,241.5 436.4,229.4 		"/>
		<polygon class="st14" points="411.8,234.5 409.8,248.4 442.4,241.5 		"/>
		<polygon class="st12" points="447.8,252.4 441.7,260.5 439.7,253.9 		"/>
		<polygon class="st12" points="441.7,260.5 434.2,258 432.1,266.9 		"/>
		<polygon class="st13" points="447.8,252.4 464.1,256.8 461.9,253.5 		"/>
		<polygon class="st8" points="447.8,252.4 441.7,260.5 464.1,256.8 		"/>
		<polygon class="st8" points="439.7,253.9 434.2,258 441.7,260.5 		"/>
		<polygon class="st14" points="441.7,260.5 442.3,269.2 432.1,266.9 		"/>
		<polygon class="st22" points="442.3,269.2 450.9,270.7 464.1,256.8 		"/>
		<polygon class="st23" points="441.7,260.5 454.2,262.5 442.3,269.2 		"/>
		<polygon class="st14" points="441.7,260.5 464.1,256.8 454.2,262.5 		"/>
		<polygon class="st7" points="432.1,266.9 438.6,271.7 442.3,269.2 		"/>
		<polygon class="st10" points="316.4,274.1 347.3,251.9 321.6,261.9 		"/>
		<polygon class="st2" points="316.3,273.4 316.5,285.8 344.9,251.6 		"/>
		<polygon class="st16" points="307.8,277.1 316.5,285.8 316.3,273.4 		"/>
		<polygon class="st10" points="336.4,259.2 366.9,234.1 341.6,247 		"/>
		<polygon class="st5" points="334.4,270.3 328.4,280.6 316.5,285.8 		"/>
		<polygon class="st13" points="344.9,251.6 349.6,273.2 334.4,270.3 		"/>
		<polygon class="st8" points="344.9,251.6 349.6,273.2 366.9,234.1 		"/>
		<polygon class="st7" points="370.8,265 347.7,273.8 365.4,237.6 		"/>
		<polygon class="st13" points="324,268.9 313.4,291.3 351.4,271.4 		"/>
		<g>
			<polygon class="st60" points="323.8,223.6 314.7,237.6 315.5,251.8 			"/>
			<polygon class="st52" points="302.2,233.1 314.7,237.6 309.7,245.2 			"/>
			<polygon class="st60" points="302.2,233.1 314.7,237.6 306,224.9 			"/>
			<polygon class="st54" points="323.8,223.6 314.7,237.6 305.7,224.2 			"/>
			<polygon class="st54" points="323.8,223.6 332.9,240.6 331,219.3 			"/>
			<polygon class="st60" points="346.4,232.6 345.8,235.1 331,219.3 			"/>
			<polygon class="st44" points="346.4,232.6 339.4,215.2 331,219.3 			"/>
			<polygon class="st32" points="319.2,239.3 340.8,238.2 318.3,242.3 			"/>
			<polygon class="st55" points="318.3,242.3 340.8,238.2 315.5,251.8 			"/>
			<polygon class="st53" points="339.4,215.2 331,219.3 340.5,212.5 340.7,214 			"/>
			<polygon class="st61" points="328.7,207.2 340.5,212.5 326,208.9 			"/>
			<polygon class="st56" points="326,208.9 317.8,216.6 331,219.3 			"/>
			<polygon class="st55" points="323.8,223.6 317.8,216.6 331,219.3 			"/>
			<polygon class="st32" points="331,219.3 326,208.9 330.6,216 			"/>
			<polygon class="st55" points="323.8,223.6 317.8,216.6 306,224.9 			"/>
			<polygon class="st59" points="326.1,209.1 317.8,216.6 325.3,213.6 			"/>
			<polygon class="st55" points="306.2,207.7 317.8,216.6 306,224.9 			"/>
			<polygon class="st54" points="306.2,207.7 317.8,216.6 326,208.9 			"/>
			<polygon class="st55" points="306.2,207.7 316.5,196.6 326,208.9 			"/>
			<polygon class="st54" points="330.6,216 326,208.9 340.5,212.5 			"/>
			<polygon class="st60" points="328.7,207.2 316.5,196.6 326,208.9 			"/>
			<polygon class="st52" points="306.2,207.7 316.5,196.6 306.6,192.4 			"/>
			<polygon class="st53" points="306.2,207.7 290.1,205.5 306.6,192.4 			"/>
			<polygon class="st38" points="306.2,207.7 290.1,205.5 306,224.9 			"/>
			<polygon class="st53" points="302.2,233.1 290.1,205.5 306,224.9 			"/>
			<polygon class="st38" points="302.2,233.1 290.1,205.5 286,223.6 			"/>
			<polygon class="st53" points="302.2,233.1 276.9,241.3 286,223.6 			"/>
			<polygon class="st52" points="302.2,233.1 276.9,241.3 304.1,253.4 			"/>
			<polygon class="st38" points="302.2,233.1 309.7,245.2 304.1,253.4 			"/>
			<polygon class="st38" points="309.7,245.2 314.7,237.6 315.5,251.8 			"/>
			<polygon class="st52" points="315.5,251.8 309.7,245.2 304.1,253.4 			"/>
			<polygon class="st67" points="341.3,220.3 337.7,225.2 342.4,222.7 			"/>
			<polygon class="st67" points="337.7,225.2 341.3,220.3 337.3,221.4 335.4,224 			"/>
			<polygon class="st53" points="345.8,235.1 340.8,238.2 319.2,239.3 			"/>
			<polygon class="st54" points="323.8,223.6 319.2,239.3 331.4,237.3 			"/>
			<polygon class="st54" points="331,219.3 332.5,237.2 345.8,235.1 			"/>
			<polygon class="st11" points="359.4,272.3 340.8,240.6 315.5,251.8 341.4,285.8 			"/>
			<polygon class="st39" points="340.8,240.6 340.8,238.2 315.7,251.7 			"/>
		</g>
		<polygon class="st32" points="340.5,212.5 330.6,216 331,219.3 		"/>
		<polygon class="st10" points="353.5,262 319.9,267 315.5,251.8 		"/>
		<path class="st32" d="M475.6,441.2c-0.7,0.1-0.5,1.2,0.2,1.1C476.4,442.1,476.3,441.1,475.6,441.2z"/>
		<polygon class="st17" points="362.5,238 375.5,286.2 366.9,234.1 		"/>
		<polygon class="st68" points="366.9,234.1 387.1,254.7 368.7,233.1 		"/>
		<polygon class="st18" points="362.5,238 365,259.2 362.9,302.8 		"/>
		<polygon class="st16" points="362.5,238 375.5,286.2 362.9,302.8 		"/>
		<polygon class="st18" points="366.9,234.1 387.1,254.7 375.5,286.2 		"/>
		<polygon class="st17" points="365,259.2 329.3,282.1 362.9,302.8 		"/>
		<polygon class="st18" points="362.9,302.8 396.9,304.4 375.5,286.2 		"/>
		<polygon class="st19" points="375.5,286.2 387.1,254.7 396.9,304.4 		"/>
		<polygon class="st18" points="329.3,282.1 316.5,285.8 362.9,302.8 		"/>
		<polygon class="st20" points="316.5,285.8 307.9,293.3 362.9,302.8 		"/>
		<polygon class="st18" points="316.5,285.8 307.8,277.1 307.9,293.3 		"/>
		<polygon class="st8" points="307.9,293.3 296.3,297.7 307.8,277.1 		"/>
		<polygon class="st10" points="307.8,277.1 298.7,284.8 296.3,297.7 		"/>
		<polygon class="st8" points="219.1,315.2 277,341.7 235.3,338.4 		"/>
		<polygon class="st14" points="263.9,320 285.2,334 261.8,334.8 		"/>
		<polygon class="st12" points="263.9,320 219.1,315.2 261.8,334.8 		"/>
		<polygon class="st10" points="263.9,320 296.3,297.7 273.9,326.6 		"/>
		<polygon class="st8" points="296.3,297.7 319,319.7 273.9,326.6 		"/>
		<polygon class="st7" points="296.3,297.7 307.9,293.3 319,319.7 		"/>
		<polygon class="st7" points="261.8,334.8 285.2,334 277,341.7 		"/>
		<polygon class="st7" points="273.9,326.6 319,319.7 285.2,334 		"/>
		<polygon class="st7" points="277,341.7 250.4,345.3 235.3,338.4 		"/>
		<polygon class="st15" points="307.9,293.3 324.5,323.5 319,319.7 		"/>
		<polygon class="st30" points="307.9,293.3 362.9,302.8 324.5,323.5 		"/>
		<polygon class="st22" points="277,341.7 269.3,344 250.4,345.3 		"/>
		<polygon class="st20" points="324.5,323.5 375.7,344.2 362.9,302.8 		"/>
		<polygon class="st20" points="362.9,302.8 402,329.8 396.9,304.4 		"/>
		<polygon class="st15" points="362.9,302.8 402,329.8 375.7,344.2 		"/>
		<polygon class="st15" points="324.5,323.5 337.5,346.8 375.7,344.2 		"/>
		<polygon class="st19" points="390.1,362.8 414.1,351.2 385.3,394.7 		"/>
		<polygon class="st14" points="337.5,346.8 390.1,362.8 345.2,368.2 		"/>
		<polygon class="st31" points="345.2,368.2 390.1,362.8 390.1,362.8 		"/>
		<polygon class="st23" points="337.5,346.8 375.7,344.2 390.1,362.8 		"/>
		<polygon class="st28" points="390.1,362.8 402,329.8 375.7,344.2 		"/>
		<polygon class="st25" points="402,329.8 414.1,351.2 390.1,362.8 		"/>
		<polygon class="st18" points="414.1,351.2 425.8,363.9 385.3,394.7 		"/>
		<polygon class="st4" points="425.8,363.9 444.7,389.1 385.3,394.7 		"/>
		<polygon class="st11" points="444.7,389.1 480.2,407.7 462.5,435.1 		"/>
		<polygon class="st9" points="425.1,363.9 464.5,396.3 444.7,389.1 		"/>
		<polygon class="st10" points="465.1,396.3 480.2,407.7 444.7,389.1 		"/>
		<polygon class="st8" points="480.2,407.7 486.1,416.9 462.5,435.1 		"/>
		<polygon class="st8" points="462.5,435.1 492.1,427.3 473.4,442.4 		"/>
		<polygon class="st10" points="486.1,416.9 492.1,427.3 465.9,429.3 		"/>
		<polygon class="st25" points="492.1,427.3 465.9,429.3 462.5,435.1 		"/>
		<polygon class="st69" points="444.7,389.1 419.1,413.4 462.5,435.1 		"/>
		<polygon class="st10" points="444.7,389.1 419.1,413.4 385.3,394.7 		"/>
		<polygon class="st4" points="492.1,427.3 480.6,462.9 473.4,442.4 		"/>
		<polygon class="st5" points="492.1,427.3 500.5,453 480.6,462.9 		"/>
		<polygon class="st45" points="492.1,427.3 552.6,496.1 500.5,453 		"/>
		<polygon class="st27" points="500.5,453 535.7,509.4 480.6,462.9 		"/>
		<polygon class="st24" points="500.5,453 551.9,495.7 535.7,509.4 		"/>
		<polygon class="st48" points="551.9,495.7 563.7,516.3 575.8,497.5 		"/>
		<polygon class="st70" points="575.8,497.5 587.7,508.4 593.8,496.6 		"/>
		<polygon class="st71" points="593.8,496.6 597.5,502.8 587.7,508.4 		"/>
		<polygon class="st71" points="575.8,497.5 587.7,508.4 572.5,516.2 		"/>
		<polygon class="st72" points="575.8,497.5 572.5,516.2 563.7,516.3 		"/>
		<polygon class="st4" points="276.5,455.8 286.9,465.4 247.9,471.3 		"/>
		<polygon class="st5" points="276.5,455.8 251.2,455.9 247.9,471.3 		"/>
		<polygon class="st11" points="251.2,455.9 277.2,436.1 276.5,455.8 		"/>
		<polygon class="st73" points="251.2,455.9 227.1,466.9 220.8,483 247.9,471.3 		"/>
		<polygon class="st74" points="247.9,471.3 227.1,493 220.8,483 		"/>
		<polygon class="st75" points="247.9,471.3 237.1,496.9 227.1,493 		"/>
		<polygon class="st71" points="220.8,483 213.3,477.1 227.1,466.9 		"/>
		<polygon class="st71" points="220.8,483 227.1,466.9 247.9,471.3 		"/>
		<polygon class="st48" points="213.3,477.1 206.7,506.6 220.8,483 		"/>
		<polygon class="st76" points="220.8,483 227.1,493 206.7,506.6 		"/>
		<polygon class="st33" points="206.7,506.6 229.7,512.5 227.1,493 		"/>
		<polygon class="st43" points="206.7,506.6 204.3,522 218.7,509.7 		"/>
		<polygon class="st48" points="218.7,509.7 218.7,535.1 229.7,512.5 		"/>
		<polygon class="st77" points="227.1,493 237.1,496.9 229.7,512.5 		"/>
		<polygon class="st41" points="204.3,522 218.7,535.1 218.7,509.7 		"/>
		<polygon class="st72" points="204.3,522 207.5,535.3 218.7,535.1 		"/>
		<polygon class="st70" points="207.5,535.3 213.9,539.8 218.7,535.1 		"/>
		<polygon class="st75" points="551.9,495.7 563.7,516.3 535.7,509.4 		"/>
		<polygon class="st78" points="535.7,509.4 538.9,528.8 544.2,511.5 		"/>
		<polygon class="st78" points="544.2,511.5 556.9,524.4 563.7,516.3 		"/>
		<polygon class="st48" points="544.2,511.5 556.9,524.4 538.9,528.8 		"/>
		<polygon class="st9" points="385.3,394.7 343.6,383.6 365.8,424.2 		"/>
		<polygon class="st21" points="385.3,394.7 390.1,362.8 343.6,383.6 		"/>
		<polygon class="st30" points="390.1,362.8 345.2,368.2 343.6,383.6 		"/>
		<polygon class="st10" points="343.6,383.6 323.1,422.4 365.8,424.2 		"/>
		<polygon class="st8" points="323.1,422.4 349,440.5 365.8,424.2 		"/>
		<polygon class="st27" points="323.1,422.4 331.1,452.2 349,440.5 		"/>
		<polygon class="st11" points="331.1,452.2 295.7,431.8 323.1,422.4 		"/>
		<polygon class="st5" points="295.7,431.8 277.2,436.1 331.1,452.2 		"/>
		<polygon class="st10" points="277.2,436.1 276.5,455.8 331.1,452.2 		"/>
		<polygon class="st9" points="331.1,452.2 286.9,465.4 276.5,455.8 		"/>
		<polygon class="st10" points="343.6,383.6 358.2,377.8 385.3,394.7 		"/>
		<polygon class="st1" points="414.6,152.4 15.6,454.6 11.2,450.3 410.2,148.1 		"/>
		<polygon class="st7" points="219.1,315.2 213,329.8 235.3,338.4 		"/>
		<polygon class="st35" points="216.3,322 198.9,324.7 213,329.8 		"/>
		<polygon class="st34" points="198.9,324.7 197.8,315.2 209.4,323.1 		"/>
		<polygon class="st69" points="197.8,315.2 208.7,313.9 209.4,323.1 		"/>
		<polygon class="st69" points="208.7,313.9 219.1,315.2 210.8,301.9 		"/>
		<polygon class="st34" points="209.8,307.5 204.4,304.8 210.8,301.9 		"/>
		<polygon class="st69" points="204.4,304.8 204.4,299.4 210.8,301.9 		"/>
		<polygon class="st35" points="208.7,313.9 216.3,322 219.1,315.2 		"/>
		<polygon class="st39" points="208.7,313.9 216.3,322 209.4,323.1 		"/>
		<polygon class="st34" points="197.8,315.2 193.9,309.8 191.7,313.2 		"/>
		<polygon class="st69" points="191.7,313.2 190.5,307.8 193.9,309.8 		"/>
		<polygon class="st46" points="193.9,309.8 194,303.6 190.5,307.8 		"/>
		<polygon class="st69" points="193.9,309.8 196.4,306.2 194,303.6 		"/>
		<polygon class="st46" points="194,303.6 196.9,300.8 192.4,302 		"/>
		<polygon class="st63" points="192.4,302 192,306 194,303.6 		"/>
		<polygon class="st10" points="196.4,306.2 204.4,304.8 196.9,300.8 194,303.6 		"/>
		<polygon class="st10" points="196.9,300.8 204.4,299.4 204.4,304.8 		"/>
		<polygon class="st8" points="196.4,306.2 193.9,309.8 204.4,304.8 		"/>
		<polygon class="st10" points="193.9,309.8 197.8,315.2 204.4,304.8 		"/>
		<polygon class="st10" points="204.4,304.8 208.7,313.9 197.8,315.2 		"/>
		<polygon class="st10" points="204.4,304.8 209.8,307.5 208.7,313.9 		"/>
	</g>
</g>
<g id="pencil">
</g>
</svg>
