<?xml version="1.0" encoding="utf-8"?>
<!-- Generator: Adobe Illustrator 19.1.0, SVG Export Plug-In . SVG Version: 6.00 Build 0)  -->
<svg version="1.1" xmlns="http://www.w3.org/2000/svg" xmlns:xlink="http://www.w3.org/1999/xlink" x="0px" y="0px"
	 viewBox="0 0 639.7 540.8" style="enable-background:new 0 0 639.7 540.8;" xml:space="preserve">
<style type="text/css">
	.st0{fill:#FFC59C;}
	.st1{fill:#DCDCDC;}
	.st2{fill:#FEC8AA;}
	.st3{fill:#E8B294;}
	.st4{fill:#D09A7C;}
	.st5{fill:#F1BB9D;}
	.st6{fill:#B98365;}
	.st7{fill:#CB9577;}
	.st8{fill:#E3AD8F;}
	.st9{fill:#DBA587;}
	.st10{fill:#F8C2A4;}
	.st11{fill:#FFD3B5;}
	.st12{fill:#FFD0B2;}
	.st13{fill:#F7C1A3;}
	.st14{fill:#C28C6E;}
	.st15{fill:#005BAC;}
	.st16{fill:#71D7FF;}
	.st17{fill:#65CBFF;}
	.st18{fill:#49AFFF;}
	.st19{fill:#3096E8;}
	.st20{fill:#197FD1;}
	.st21{fill:#2187D9;}
	.st22{fill:#AA7456;}
	.st23{fill:#BA8466;}
	.st24{fill:#EFB99B;}
	.st25{fill:#EAB496;}
	.st26{fill:#C18B6D;}
	.st27{fill:#D49E80;}
	.st28{fill:#D59F81;}
	.st29{fill:#D9A385;}
	.st30{fill:#0B71C3;}
	.st31{fill:#DBC775;}
	.st32{fill:#F9DF6E;}
	.st33{fill:#D89032;}
	.st34{fill:#EFAC6A;}
	.st35{fill:#DB9D5A;}
	.st36{fill:#D39590;}
	.st37{fill:#F2D144;}
	.st38{fill:#998B4F;}
	.st39{fill:#BF8F56;}
	.st40{fill:#C17465;}
	.st41{fill:#DB5D31;}
	.st42{fill:#DB4831;}
	.st43{fill:#D16B50;}
	.st44{fill:#F7F0D2;}
	.st45{fill:#FDC7A9;}
	.st46{fill:#F2C7A7;}
	.st47{fill:#CC9678;}
	.st48{fill:#CC6D92;}
	.st49{fill:#C1859D;}
	.st50{fill:#D34071;}
	.st51{fill:#FFC69D;}
	.st52{fill:#82722E;}
	.st53{fill:#B2A157;}
	.st54{fill:#FFE6BE;}
	.st55{fill:#FFD0A7;}
	.st56{fill:#D89D74;}
	.st57{fill:#FFDAB2;}
	.st58{fill:#C48A61;}
	.st59{fill:#965B32;}
	.st60{fill:#E8E5D9;}
	.st61{fill:#F7FFEF;}
	.st62{fill:#BF8F56;stroke:#000000;stroke-width:0.2;stroke-miterlimit:10;}
	.st63{fill:#F4DBCB;}
	.st64{fill:none;}
	.st65{fill:#976DA0;}
	.st66{fill:#D3A9BC;}
	.st67{fill:#D5B92A;}
	.st68{fill:#CEE0A4;}
	.st69{fill:#EFBB8E;}
	.st70{fill:#FFA53A;}
	.st71{fill:#FFB145;}
	.st72{fill:#FF8015;}
	.st73{fill:#FF9025;}
	.st74{fill:#FF891E;}
	.st75{fill:#FF7005;}
	.st76{fill:#CC6D6C;}
	.st77{fill:#F55900;}
	.st78{fill:#FC6100;}
	.st79{fill:#CE987A;}
	.st80{fill:#DAA486;}
	.st81{fill:#996345;}
	.st82{opacity:0.2;fill:#B55E00;}
	.st83{fill:#C9B0D1;}
	.st84{fill:#FFCEB0;}
	.st85{fill:#BF896B;}
	.st86{fill:#DCA688;}
	.st87{fill:#BD8769;}
	.st88{fill:#D6A082;}
	.st89{fill:#A3A3E5;}
	.st90{fill:#606096;}
	.st91{fill:#F0BA9C;}
	.st92{fill:#BE886A;}
	.st93{fill:#DFA98B;}
	.st94{fill:#FFCFB1;}
	.st95{fill:#F4BEA0;}
	.st96{fill:#DDA789;}
	.st97{fill:#6A6ACE;}
	.st98{fill:#86ECFF;}
	.st99{fill:#67CDFF;}
	.st100{fill:#A4FFFF;}
	.st101{fill:#73D9FF;}
	.st102{fill:#FFDBF3;}
</style>
<g id="RIGHT_FOOT">
</g>
<g id="RIGHT_LEG_CALF">
</g>
<g id="RIGHT_LEG_THIGH">
</g>
<g id="RIGHT_HAND">
</g>
<g id="RIGHT_ARM">
</g>
<g id="LEFT_FOOT_1_">
</g>
<g id="LEFT_LEG_CALF">
</g>
<g id="LEFT_LEG_THIGH">
	<g id="LEFT_FOOT">
	</g>
</g>
<g id="TORSO">
</g>
<g id="LEFT_HAND">
</g>
<g id="LEFT_ARM">
	<g>
		<circle class="st2" cx="386.2" cy="519.2" r="10.9"/>
		<polygon class="st43" points="376.4,527.7 375.6,539.8 394.4,511.9 		"/>
		<polygon class="st41" points="428.1,529.3 375.6,539.8 394.4,511.9 		"/>
		<polygon class="st33" points="428.1,529.3 375.6,539.8 435.1,538.1 		"/>
		<circle class="st64" cx="386.2" cy="519.2" r="10.9"/>
		<polygon class="st88" points="342.5,428 367.8,434.6 347.9,461.4 		"/>
		<polygon class="st2" points="378.7,471.6 367.8,434.6 347.9,461.4 		"/>
		<polygon class="st11" points="378.7,471.6 369.3,501 347.9,461.4 		"/>
		<polygon class="st88" points="378.7,471.6 369.3,501 393.6,511 		"/>
		<polygon class="st11" points="377.5,528.8 369.3,501 393.6,511 		"/>
		<path class="st88" d="M366.6,430.5c-0.8-6.6-6.3-9.7-12.7-7.9c-6.3,1.9-11.9,4.3-11.1,10.9c0.8,6.6,6.8,11.2,13.4,10.4
			C362.8,443.1,367.4,437.1,366.6,430.5z"/>
		<polygon class="st52" points="250.9,167.2 260.7,185.4 252.5,188.8 		"/>
		<polygon class="st38" points="250.9,167.2 260.7,185.4 263.9,162.8 		"/>
		<polygon class="st53" points="267.2,181.3 260.7,185.4 263.9,162.8 		"/>
		<polygon class="st13" points="267.2,181.3 273.8,197.9 284,171.8 		"/>
		<polygon class="st60" points="289.2,198.8 287.3,200.4 284,171.8 		"/>
		<polygon class="st57" points="289.2,198.8 293,173 284,171.8 		"/>
		<polygon class="st38" points="260.4,185.4 280.2,202.2 261,191.2 		"/>
		<polygon class="st52" points="261,191.2 280.2,202.2 253.5,197.4 		"/>
		<polygon class="st53" points="293,173 284,171.8 295.5,171.5 294.8,172.8 		"/>
		<polygon class="st54" points="287.3,162.4 295.5,171.5 284.1,162.2 		"/>
		<polygon class="st56" points="284.1,162.2 273.2,163.9 284,171.8 		"/>
		<polygon class="st12" points="267.2,181.3 273.2,163.9 284,171.8 		"/>
		<polygon class="st32" points="284,171.8 284.1,162.2 285.4,168.9 		"/>
		<polygon class="st8" points="267.2,181.3 273.2,163.9 263.9,162.8 		"/>
		<polygon class="st59" points="284.2,162.4 273.2,163.9 281.1,165.6 		"/>
		<polygon class="st51" points="269.6,153.7 273.2,163.9 263.9,162.8 		"/>
		<polygon class="st54" points="269.6,153.7 273.2,163.9 284.1,162.2 		"/>
		<polygon class="st55" points="269.6,153.7 284.1,150.3 284.1,162.2 		"/>
		<polygon class="st55" points="285.4,168.9 284.1,162.2 295.5,171.5 		"/>
		<polygon class="st55" points="287.3,162.4 284.1,150.3 284.1,162.2 		"/>
		<polygon class="st52" points="269.6,153.7 284.1,150.3 278.6,146.9 		"/>
		<polygon class="st53" points="269.6,153.7 258,148.6 278.6,146.9 		"/>
		<polygon class="st38" points="269.6,153.7 258,148.6 263.9,162.8 		"/>
		<polygon class="st53" points="250.9,167.2 258,148.6 263.9,162.8 		"/>
		<polygon class="st38" points="250.9,167.2 258,148.6 246,159.3 		"/>
		<polygon class="st53" points="250.9,167.2 228.4,164 246,159.3 		"/>
		<polygon class="st52" points="250.9,167.2 228.4,164 243.3,192.4 		"/>
		<polygon class="st38" points="250.9,167.2 252.5,188.8 243.3,192.4 		"/>
		<polygon class="st38" points="252.5,188.8 260.7,185.4 253.5,197.4 		"/>
		<polygon class="st53" points="261,191.2 260.7,185.4 253.5,197.4 		"/>
		<polygon class="st52" points="253.5,197.4 252.5,188.8 243.3,192.4 		"/>
		<polygon class="st67" points="291.8,186 286.2,188 291.4,188.5 		"/>
		<polygon class="st67" points="286.2,188 291.8,186 287.9,184.7 285,185.7 		"/>
		<polygon class="st53" points="287.3,200.4 280.2,202.2 260.4,185.4 		"/>
		<polygon class="st38" points="267.2,181.3 260.4,185.4 274.4,194.4 		"/>
		<polygon class="st54" points="284,171.8 275.4,194.9 287.3,200.4 		"/>
		<polygon class="st51" points="295.5,171.5 285.4,168.9 284,171.8 		"/>
		<polygon class="st88" points="343.1,339.2 311.7,342.5 319.1,324.1 		"/>
		<polygon class="st88" points="343.1,339.2 311.7,342.5 320.2,381.2 		"/>
		<polygon class="st14" points="343.1,339.2 337.2,416.7 320.2,381.2 		"/>
		<polygon class="st88" points="343.1,339.2 337.2,416.7 360.1,387.9 		"/>
		<polygon class="st32" points="297.8,301.4 287.2,323.6 319.1,324.1 		"/>
		<polygon class="st14" points="342.5,427.9 337.2,416.7 360.1,387.9 		"/>
		<polygon class="st11" points="342.5,427.9 365.8,404.6 360.1,387.9 		"/>
		<polygon class="st88" points="342.5,427.9 365.8,404.6 369.4,416.7 		"/>
		<polygon class="st14" points="342.5,427.9 367.7,434.6 369.4,416.7 		"/>
		<polygon class="st15" points="311.7,297.4 329.7,316.9 319.1,324.1 		"/>
		<polygon class="st2" points="343.1,339.2 329.7,316.9 319.1,324.1 		"/>
		<polygon class="st53" points="297.8,301.4 319.1,324.1 311.7,297.4 		"/>
		<polygon class="st88" points="320.2,381.2 311.7,342.5 301.1,347.9 		"/>
		<polygon class="st53" points="287.2,323.6 311.7,342.5 301.1,347.9 		"/>
		<polygon class="st60" points="287.2,323.6 311.7,342.5 319.1,324.1 		"/>
		<polygon class="st89" points="306.3,191.5 298.6,209.2 302.3,224 		"/>
		<polygon class="st90" points="322.4,213.6 302.3,224 306.3,191.5 		"/>
		<circle class="st91" cx="200.8" cy="484.8" r="9.5"/>
		<polygon class="st43" points="184.3,485.5 208,491.7 194.2,477.6 		"/>
		<polygon class="st40" points="184.3,485.5 208,491.7 197.3,503.4 		"/>
		<polygon class="st48" points="184.3,485.5 178.8,501.7 197.3,503.4 		"/>
		<polygon class="st33" points="211.9,530.4 178.8,501.7 197.3,503.4 		"/>
		<polygon class="st48" points="211.9,530.4 208,491.7 197.3,503.4 		"/>
		<circle class="st64" cx="200.8" cy="484.8" r="9.5"/>
		<path class="st84" d="M292.3,429.5c5.3-4,6.7-11.1,2.3-16c-4.5-4.9-12-5.2-16.9-0.7c-4.9,4.5-6.1,9.1-2.1,14.3
			C279.5,432.4,287,433.4,292.3,429.5z"/>
		<polygon class="st84" points="284.1,433.2 275,406.3 263.4,413.8 		"/>
		<polygon class="st91" points="284.1,433.2 251.4,446 263.4,413.8 		"/>
		<polygon class="st92" points="284.1,433.2 251.4,446 222,473 		"/>
		<polygon class="st84" points="263.4,413.8 251.4,446 222,473 		"/>
		<polygon class="st93" points="263.4,413.8 232.1,439.3 222,473 		"/>
		<polygon class="st7" points="205.6,471.1 232.1,439.3 222,473 		"/>
		<polygon class="st93" points="205.6,471.1 208,491.7 222,473 		"/>
		<polygon class="st91" points="205.6,471.1 208,491.7 194.2,477.6 		"/>
		<polygon class="st63" points="277.9,316.9 285,304.5 307.5,296.1 		"/>
		<polygon class="st46" points="277.9,316.9 321.8,316.9 307.5,296.1 		"/>
		<polygon class="st11" points="277.9,316.9 321.8,316.9 283.1,343.9 		"/>
		<polygon class="st46" points="277.9,316.9 272.3,329 283.1,343.9 		"/>
		<polygon class="st94" points="277.2,383.9 272.3,329 283.1,343.9 		"/>
		<polygon class="st95" points="277.2,383.9 321.8,316.9 283.1,343.9 		"/>
		<polygon class="st85" points="314.3,377.4 321.8,316.9 324.4,339 		"/>
		<polygon class="st96" points="321.8,316.9 277.2,383.9 314.3,377.4 		"/>
		<polygon class="st95" points="277.2,383.9 314.3,377.4 275,406.3 		"/>
		<polygon class="st96" points="302.6,414.1 314.3,377.4 275,406.3 		"/>
		<polygon class="st94" points="302.6,414.1 275,406.3 275,406.3 		"/>
		<polygon class="st7" points="302.6,414.1 275,406.3 296.6,431.5 		"/>
		<polygon class="st85" points="284.1,433.2 275,406.3 296.6,431.5 		"/>
		<polygon class="st79" points="261.2,206.2 249.8,224.1 283.3,224.5 		"/>
		<polygon class="st81" points="268.9,242 249.8,224.1 257.5,257.6 		"/>
		<polygon class="st97" points="276.4,208.4 261.2,206.2 283.3,224.5 		"/>
		<polygon class="st79" points="245.5,240.7 249.8,224.1 257.5,257.6 		"/>
		<polygon class="st80" points="245.5,240.7 244.1,266.3 257.5,257.6 		"/>
		<polygon class="st81" points="287.8,297.6 244.1,266.3 257.5,257.6 		"/>
		<polygon class="st81" points="268.9,242 249.8,224.1 283.3,224.5 		"/>
		<polygon class="st18" points="283.3,304.1 271.1,324.4 272.3,329 		"/>
		<polygon class="st98" points="283.3,304.1 271.1,324.4 275,292.4 		"/>
		<polygon class="st99" points="283.3,304.1 297,295.8 275,292.4 		"/>
		<polygon class="st100" points="283.3,304.1 297,295.8 302.2,326.7 		"/>
		<line class="st48" x1="302.2" y1="326.7" x2="343.1" y2="339.2"/>
		<polygon class="st17" points="261.1,263.3 297,295.8 275,292.4 		"/>
		<polygon class="st16" points="261.1,263.3 297,295.8 296.6,260 		"/>
		<polygon class="st18" points="261.1,263.3 252.2,240.7 263.7,242.9 296.6,260 		"/>
		<polygon class="st17" points="299,248.9 263.7,242.9 296.6,260 		"/>
		<polygon class="st21" points="299,248.9 320.3,249.2 296.6,260 		"/>
		<polygon class="st15" points="299,248.9 320.3,249.2 322.4,213.6 		"/>
		<polygon class="st20" points="295.5,204.8 299,248.9 322.4,213.6 		"/>
		<polygon class="st18" points="295.5,204.8 299,248.9 263.7,242.9 		"/>
		<polygon class="st17" points="252.2,240.7 263.7,242.9 253.5,225.7 		"/>
		<polygon class="st17" points="261.2,206.2 295.5,204.8 253.5,225.7 		"/>
		<polygon class="st101" points="320.3,288.4 297,295.8 302.2,326.7 		"/>
		<polygon class="st99" points="320.3,288.4 297,295.8 296.6,260 		"/>
		<polygon class="st15" points="320.3,288.4 320.3,249.2 296.6,260 		"/>
		<polygon class="st30" points="320.3,288.4 321.8,316.9 302.2,326.7 		"/>
		<polygon class="st20" points="324.4,339 321.8,316.9 302.2,326.7 		"/>
		<polygon class="st15" points="295.5,204.8 306.3,191.5 322.4,213.6 		"/>
		<polygon class="st83" points="306.3,191.5 295.5,204.8 294.7,204.4 		"/>
		<polygon class="st39" points="294.7,204.4 286.2,197.4 295.5,204.8 		"/>
		<polygon class="st21" points="261.2,206.2 294.7,204.4 272.2,197.5 		"/>
		<line class="st102" x1="302.2" y1="326.7" x2="272.3" y2="329"/>
		<polygon class="st99" points="272.3,329 283.3,304.1 302.2,326.7 		"/>
		<circle class="st86" cx="374.1" cy="101.1" r="5.3"/>
		<polygon class="st4" points="409.3,76.8 394.7,74.5 383.1,95.5 395.1,86.9 		"/>
		<polygon class="st87" points="401.6,99.4 383.1,95.5 395.1,86.9 		"/>
		<polygon class="st24" points="401.6,99.4 383.1,95.5 377.6,105.4 		"/>
		<circle class="st64" cx="374.1" cy="101.1" r="5.3"/>
		<polygon class="st24" points="363.1,104 359.6,132.4 377.6,105.4 		"/>
		<polygon class="st86" points="363.1,104 370.7,96.9 377.6,105.4 		"/>
		<circle class="st64" cx="374.1" cy="101.1" r="5.3"/>
		<polygon class="st79" points="273.1,186.8 288.4,172.1 295.5,204.8 		"/>
		<polygon class="st14" points="309.8,187.3 288.4,172.1 322.8,173 		"/>
		<polygon class="st14" points="272.2,216.3 273.1,186.8 295.5,204.8 		"/>
		<polygon class="st79" points="303.8,164.6 288.4,172.1 322.8,173 		"/>
		<polygon class="st80" points="303.8,164.6 325.1,144.4 322.8,173 		"/>
		<polygon class="st81" points="339.6,151.9 325.1,144.4 322.8,173 		"/>
		<polygon class="st80" points="339.6,151.9 325.1,144.4 338,127.6 		"/>
		<polygon class="st7" points="339.6,151.9 359.6,132.4 338,127.6 		"/>
		<polygon class="st8" points="363.1,104 359.6,132.4 338,127.6 		"/>
		<polygon class="st13" points="363.1,104 359.6,132.4 377.6,105.4 		"/>
		<polygon class="st12" points="363.1,104 370.7,96.9 377.6,105.4 		"/>
		<polygon class="st81" points="309.8,187.3 288.4,172.1 295.5,204.8 		"/>
		<polygon class="st13" points="409.3,76.8 394.7,74.5 383.1,95.5 395.1,86.9 		"/>
		<polygon class="st7" points="401.6,99.4 383.1,95.5 395.1,86.9 		"/>
		<polygon class="st13" points="401.6,99.4 383.1,95.5 377.6,105.4 		"/>
		<polygon class="st12" points="370.7,96.9 394.7,74.5 377.6,105.4 		"/>
		<polygon class="st24" points="320.4,276.4 320.2,289.8 304.8,277.4 		"/>
		<polygon class="st25" points="304.8,277.4 304.8,293.7 320.2,289.8 		"/>
		<polygon class="st26" points="304.8,277.4 293.1,280.8 304.8,293.7 		"/>
		<polygon class="st27" points="293.1,280.8 283.3,304.1 304.8,293.7 		"/>
		<polygon class="st14" points="293.1,280.8 275,292.4 283.3,304.1 		"/>
		<polygon class="st28" points="275,292.4 273.1,307.4 283.3,304.1 		"/>
		<polygon class="st16" points="295.5,204.8 263.7,242.9 253.5,225.7 		"/>
		<circle class="st1" cx="461.5" cy="63.8" r="15.7"/>
	</g>
</g>
<g id="pencil">
</g>
</svg>
