<?xml version="1.0" encoding="utf-8"?>
<!-- Generator: Adobe Illustrator 19.1.0, SVG Export Plug-In . SVG Version: 6.00 Build 0)  -->
<svg version="1.1" xmlns="http://www.w3.org/2000/svg" xmlns:xlink="http://www.w3.org/1999/xlink" x="0px" y="0px"
	 viewBox="0 0 639.7 540.8" style="enable-background:new 0 0 639.7 540.8;" xml:space="preserve">
<style type="text/css">
	.st0{fill:#FFC59C;}
	.st1{fill:#DCDCDC;}
	.st2{fill:#FEC8AA;}
	.st3{fill:#E8B294;}
	.st4{fill:#D09A7C;}
	.st5{fill:#F1BB9D;}
	.st6{fill:#B98365;}
	.st7{fill:#CB9577;}
	.st8{fill:#E3AD8F;}
	.st9{fill:#DBA587;}
	.st10{fill:#F8C2A4;}
	.st11{fill:#FFD3B5;}
	.st12{fill:#FFD0B2;}
	.st13{fill:#F7C1A3;}
	.st14{fill:#C28C6E;}
	.st15{fill:#005BAC;}
	.st16{fill:#71D7FF;}
	.st17{fill:#65CBFF;}
	.st18{fill:#49AFFF;}
	.st19{fill:#3096E8;}
	.st20{fill:#197FD1;}
	.st21{fill:#2187D9;}
	.st22{fill:#AA7456;}
	.st23{fill:#BA8466;}
	.st24{fill:#EFB99B;}
	.st25{fill:#EAB496;}
	.st26{fill:#C18B6D;}
	.st27{fill:#D49E80;}
	.st28{fill:#D59F81;}
	.st29{fill:#D9A385;}
	.st30{fill:#0B71C3;}
	.st31{fill:#DBC775;}
	.st32{fill:#F9DF6E;}
	.st33{fill:#D89032;}
	.st34{fill:#EFAC6A;}
	.st35{fill:#DB9D5A;}
	.st36{fill:#D39590;}
	.st37{fill:#F2D144;}
	.st38{fill:#998B4F;}
	.st39{fill:#BF8F56;}
	.st40{fill:#C17465;}
	.st41{fill:#DB5D31;}
	.st42{fill:#DB4831;}
	.st43{fill:#D16B50;}
	.st44{fill:#F7F0D2;}
	.st45{fill:#FDC7A9;}
	.st46{fill:#F2C7A7;}
	.st47{fill:#CC9678;}
	.st48{fill:#CC6D92;}
	.st49{fill:#C1859D;}
	.st50{fill:#D34071;}
	.st51{fill:#FFC69D;}
	.st52{fill:#82722E;}
	.st53{fill:#B2A157;}
	.st54{fill:#FFE6BE;}
	.st55{fill:#FFD0A7;}
	.st56{fill:#D89D74;}
	.st57{fill:#FFDAB2;}
	.st58{fill:#C48A61;}
	.st59{fill:#965B32;}
	.st60{fill:#E8E5D9;}
	.st61{fill:#F7FFEF;}
	.st62{fill:#BF8F56;stroke:#000000;stroke-width:0.2;stroke-miterlimit:10;}
	.st63{fill:#F4DBCB;}
	.st64{fill:none;}
	.st65{fill:#976DA0;}
	.st66{fill:#D3A9BC;}
	.st67{fill:#D5B92A;}
	.st68{fill:#CEE0A4;}
	.st69{fill:#EFBB8E;}
	.st70{fill:#FFA53A;}
	.st71{fill:#FFB145;}
	.st72{fill:#FF8015;}
	.st73{fill:#FF9025;}
	.st74{fill:#FF891E;}
	.st75{fill:#FF7005;}
	.st76{fill:#CC6D6C;}
	.st77{fill:#F55900;}
	.st78{fill:#FC6100;}
	.st79{fill:#CE987A;}
	.st80{fill:#DAA486;}
	.st81{fill:#996345;}
	.st82{opacity:0.2;fill:#B55E00;}
	.st83{fill:#C9B0D1;}
	.st84{fill:#FFCEB0;}
	.st85{fill:#BF896B;}
	.st86{fill:#DCA688;}
	.st87{fill:#BD8769;}
	.st88{fill:#D6A082;}
	.st89{fill:#A3A3E5;}
	.st90{fill:#606096;}
	.st91{fill:#F0BA9C;}
	.st92{fill:#BE886A;}
	.st93{fill:#DFA98B;}
	.st94{fill:#FFCFB1;}
	.st95{fill:#F4BEA0;}
	.st96{fill:#DDA789;}
	.st97{fill:#6A6ACE;}
	.st98{fill:#86ECFF;}
	.st99{fill:#67CDFF;}
	.st100{fill:#A4FFFF;}
	.st101{fill:#73D9FF;}
	.st102{fill:#FFDBF3;}
</style>
<g id="RIGHT_FOOT">
</g>
<g id="RIGHT_LEG_CALF">
</g>
<g id="RIGHT_LEG_THIGH">
	<g>
		<polygon class="st0" points="388.5,183 382.3,203.8 351.1,188.4 364.8,168.4 		"/>
		<g>
			<polygon class="st2" points="359.2,179.4 351.1,188.4 374.1,192.5 			"/>
			<polygon class="st3" points="352.7,174.6 351.1,188.4 359.2,179.4 			"/>
			<polygon class="st4" points="374.1,192.5 383.1,212.6 384.7,192.1 			"/>
			<polygon class="st5" points="374.1,192.5 348.2,208 351.1,188.4 			"/>
			<polygon class="st6" points="374.1,192.5 367.5,219.7 362.1,199.6 			"/>
			<polygon class="st7" points="374.1,192.5 367.5,219.7 383.1,212.6 			"/>
			<polygon class="st7" points="362.1,199.6 348.2,208 367.5,219.7 			"/>
			<polygon class="st8" points="388.1,185.2 397.7,232.3 396.3,190.6 			"/>
			<polygon class="st5" points="396.3,190.6 403.1,192.1 394.9,214.3 			"/>
			<polygon class="st9" points="403.1,192.1 411.9,201.6 394.9,214.3 			"/>
			<polygon class="st4" points="411.9,201.6 410.6,214.3 394.9,214.3 			"/>
			<polygon class="st8" points="394.9,214.3 397.7,232.3 410.6,214.3 			"/>
			<polygon class="st8" points="345.6,174.3 340,173.4 339.5,209 			"/>
			<polygon class="st8" points="340,173.4 330.9,178.8 339.5,209 			"/>
			<polygon class="st4" points="330.9,178.8 313.1,196.5 339.5,209 			"/>
			<polygon class="st10" points="313.1,196.5 319.6,207 339.5,209 			"/>
			<polygon class="st9" points="330.9,178.8 310.9,182.4 313.1,196.5 			"/>
			<polygon class="st8" points="313.1,196.5 299.9,199.6 319.6,207 			"/>
			<polygon class="st10" points="310.9,182.4 296.8,192.1 313.1,196.5 			"/>
			<polygon class="st11" points="296.8,192.1 299.9,199.6 313.1,196.5 			"/>
			<polygon class="st8" points="299.9,199.6 309.4,210.2 319.6,207 			"/>
			<polygon class="st8" points="319.6,207 317.7,221.2 309.4,210.2 			"/>
			<polygon class="st7" points="319.6,207 327.2,220.6 317.7,221.2 			"/>
			<polygon class="st11" points="319.6,207 339.5,209 327.2,220.6 			"/>
			<polygon class="st12" points="296.8,192.1 275.6,201.7 299.9,199.6 			"/>
			<polygon class="st12" points="275.6,201.7 279.7,234.7 268.6,243.5 			"/>
			<polygon class="st13" points="275.6,201.7 266.4,207 268.6,243.5 			"/>
			<polygon class="st13" points="266.4,207 259.4,231.5 256.3,213.8 			"/>
			<polygon class="st8" points="266.4,207 259.4,231.5 268.6,243.5 			"/>
			<polygon class="st8" points="275.6,201.7 299.9,199.6 276.5,209 			"/>
			<polygon class="st7" points="299.9,199.6 278.2,222.6 276.5,209 			"/>
			<polygon class="st14" points="299.9,199.6 309.4,210.2 278.2,222.6 			"/>
			<polygon class="st15" points="327.2,220.6 308.2,221.9 327.2,236.1 			"/>
			<polygon class="st7" points="309.4,210.2 308.2,221.9 317.7,221.2 			"/>
			<polygon class="st16" points="388.1,185.2 384.7,192.1 392.6,207.4 			"/>
			<polygon class="st17" points="384.7,192.1 383.1,212.6 392.6,207.4 			"/>
			<polygon class="st18" points="383.1,212.6 397.7,232.3 392.6,207.4 			"/>
			<polygon class="st16" points="352.7,174.6 345.6,174.3 351.1,188.4 			"/>
			<polygon class="st17" points="345.6,174.3 339.5,209 351.1,188.4 			"/>
			<polygon class="st18" points="351.1,188.4 348.2,208 339.5,209 			"/>
			<polygon class="st19" points="339.5,209 327.2,220.6 348.2,208 			"/>
			<polygon class="st20" points="327.2,236.1 306.7,255.7 308.2,221.9 			"/>
			<polygon class="st21" points="327.2,236.1 323.3,264.1 306.7,255.7 			"/>
			<polygon class="st21" points="383.1,212.6 384.1,245.2 397.7,232.3 			"/>
			<polygon class="st19" points="383.1,212.6 367.5,219.7 384.1,245.2 			"/>
			<polygon class="st19" points="367.5,219.7 342.6,260.3 348.2,208 			"/>
			<polygon class="st21" points="348.2,208 327.2,220.6 342.6,260.3 			"/>
			<polygon class="st20" points="327.2,220.6 327.2,236.1 342.6,260.3 			"/>
			<polygon class="st20" points="384.1,245.2 370.6,262.7 342.6,260.3 			"/>
			<polygon class="st21" points="370.6,262.7 369.1,271.5 342.6,260.3 			"/>
			<polygon class="st20" points="342.6,260.3 341.2,269.6 369.1,271.5 			"/>
			<polygon class="st21" points="342.6,260.3 323.3,264.1 341.2,269.6 			"/>
			<polygon class="st15" points="327.2,236.1 342.6,260.3 323.3,264.1 			"/>
			<polygon class="st15" points="367.5,219.7 342.6,260.3 384.1,245.2 			"/>
			<polygon class="st22" points="397.7,232.3 407.5,278.8 384.1,245.2 			"/>
			<polygon class="st23" points="404.1,216 397.7,232.3 407.5,278.8 			"/>
			<polygon class="st8" points="384.1,245.2 399,285.9 407.5,278.8 			"/>
			<polygon class="st12" points="279.7,234.7 289.4,238.1 287.4,231.5 			"/>
			<polygon class="st12" points="289.4,238.1 294.3,231.9 301,238.1 			"/>
			<polygon class="st13" points="279.7,234.7 268.6,247.5 268.6,243.5 			"/>
			<polygon class="st8" points="279.7,234.7 289.4,238.1 268.6,247.5 			"/>
			<polygon class="st8" points="287.4,231.5 294.3,231.9 289.4,238.1 			"/>
			<polygon class="st14" points="289.4,238.1 293.8,245.8 301,238.1 			"/>
			<polygon class="st22" points="293.8,245.8 287.4,251.8 268.6,247.5 			"/>
			<polygon class="st23" points="289.4,238.1 280,246.7 293.8,245.8 			"/>
			<polygon class="st14" points="289.4,238.1 268.6,247.5 280,246.7 			"/>
			<polygon class="st7" points="301,238.1 298.2,245.8 293.8,245.8 			"/>
			<polygon class="st24" points="306.7,255.7 299.5,268.8 323.3,264.1 			"/>
			<polygon class="st25" points="323.3,264.1 323.3,280.9 299.5,268.8 			"/>
			<polygon class="st26" points="323.3,264.1 341.2,269.6 323.3,280.9 			"/>
			<polygon class="st27" points="341.2,269.6 356.4,283.6 323.3,280.9 			"/>
			<polygon class="st14" points="341.2,269.6 369.1,271.5 356.4,283.6 			"/>
			<polygon class="st28" points="369.1,271.5 368.6,284.5 356.4,283.6 			"/>
			<polygon class="st25" points="419.9,283 427.2,290.6 427.5,284.1 			"/>
			<polygon class="st24" points="427.2,290.6 432.3,295.2 436,291.2 			"/>
			<polygon class="st12" points="417.2,288.6 426.4,298 412.2,305.8 			"/>
			<polygon class="st13" points="417.2,288.6 408.1,289.4 412.2,305.8 			"/>
			<polygon class="st25" points="408.1,289.4 399,285.9 412.2,305.8 			"/>
			<polygon class="st29" points="399,285.9 368.6,284.5 412.2,305.8 			"/>
			<polygon class="st22" points="407.5,278.8 408.1,289.4 399,285.9 			"/>
			<polygon class="st23" points="407.5,278.8 414.3,283 408.1,289.4 			"/>
			<polygon class="st22" points="414.3,283 417.2,288.6 408.1,289.4 			"/>
			<polygon class="st23" points="414.3,283 419.9,283 417.2,288.6 			"/>
			<polygon class="st26" points="419.9,283 423,294.5 427.2,290.6 			"/>
			<polygon class="st23" points="427.2,290.6 423,294.5 432.3,295.2 			"/>
			<polygon class="st14" points="419.9,283 417.2,288.6 423,294.5 			"/>
			<polygon class="st14" points="432.3,295.2 426.4,298 423,294.5 			"/>
			<polygon class="st15" points="368.6,284.5 358.7,292 356.4,283.6 			"/>
			<polygon class="st30" points="356.4,283.6 323.3,280.9 358.7,292 			"/>
			<polygon class="st15" points="323.3,280.9 347.1,306.3 358.7,292 			"/>
			<polygon class="st30" points="323.3,280.9 336,317.6 347.1,306.3 			"/>
			<polygon class="st21" points="323.3,280.9 308.2,296.7 336,317.6 			"/>
			<polygon class="st20" points="336,317.6 328.6,324.7 308.2,296.7 			"/>
			<polygon class="st15" points="308.2,296.7 320.6,326.3 328.6,324.7 			"/>
			<polygon class="st15" points="336,317.6 328.6,324.7 338.1,325.8 			"/>
			<polygon class="st19" points="323.3,280.9 299.5,268.8 317.3,287.2 			"/>
			<polygon class="st18" points="299.5,268.8 292,278.8 317.3,287.2 			"/>
			<polygon class="st19" points="292,278.8 308.2,296.7 317.3,287.2 			"/>
			<polygon class="st14" points="368.6,284.5 386.8,319.3 358.7,292 			"/>
			<polygon class="st26" points="358.7,292 347.1,306.3 386.8,319.3 			"/>
			<polyline class="st25" points="347.1,306.3 346.9,306.6 336,317.6 387.1,319.3 			"/>
			<polygon class="st27" points="386.8,319.3 357.6,327.9 336,317.6 			"/>
			<polygon class="st10" points="386.8,319.3 412.2,305.8 368.6,284.5 			"/>
			<polygon class="st14" points="336,317.6 338.1,325.8 357.6,327.9 			"/>
			<polygon class="st23" points="386.8,319.3 389.5,325.3 366.3,325.3 			"/>
			<polygon class="st22" points="386.8,319.3 408.5,321.2 389.5,325.3 			"/>
			<polygon class="st8" points="412.2,305.8 408.5,321.2 386.8,319.3 			"/>
			<polygon class="st29" points="412.2,305.8 434.2,309.9 408.5,321.2 			"/>
			<polygon class="st8" points="426.4,298 434.2,309.9 412.2,305.8 			"/>
			<polygon class="st14" points="434.2,309.9 415.2,324.6 408.5,321.2 			"/>
			<polygon class="st5" points="434.2,309.9 442.4,343.2 422.4,319.1 			"/>
			<polygon class="st9" points="422.4,319.1 427.8,339.6 442.4,343.2 			"/>
			<polygon class="st4" points="422.4,319.1 415.2,324.6 427.8,339.6 			"/>
			<polygon class="st4" points="442.4,343.2 474.7,347.8 465.2,362.2 			"/>
			<polygon class="st5" points="442.4,343.2 457.8,326.6 474.7,347.8 			"/>
			<polygon class="st11" points="457.8,326.6 449,317.3 434.2,309.9 			"/>
			<polygon class="st10" points="434.2,309.9 442.4,343.2 457.8,326.6 			"/>
			<polygon class="st31" points="474.7,347.8 483.8,346.1 469.8,363 			"/>
			<polygon class="st32" points="474.7,347.8 486,337 483.8,346.1 			"/>
			<polygon class="st32" points="474.7,347.8 465.2,362.2 469.8,363 			"/>
			<polygon class="st33" points="469.8,363 492.5,370.3 483.8,346.1 			"/>
			<polygon class="st31" points="469.8,363 465.8,367.6 465.2,362.2 			"/>
			<polygon class="st34" points="483.8,346.1 492.9,341.5 492.5,370.3 			"/>
			<polygon class="st35" points="492.9,341.5 494.3,329.3 483.8,346.1 			"/>
			<polygon class="st36" points="494.3,329.3 506,331.5 492.9,341.5 			"/>
			<polygon class="st37" points="483.8,346.1 487.9,339.6 486,337 			"/>
			<polygon class="st33" points="486,337 494.3,329.3 487.9,339.6 			"/>
			<polygon class="st38" points="479.9,366.1 465.8,367.6 469.8,363 			"/>
			<polygon class="st39" points="479.9,366.1 471.8,377.2 465.8,367.6 			"/>
			<polygon class="st40" points="479.9,366.1 481,380.3 471.8,377.2 			"/>
			<polygon class="st41" points="479.9,366.1 488.7,376.8 481,380.3 			"/>
			<polygon class="st42" points="479.9,366.1 492.5,370.3 488.7,376.8 			"/>
			<polygon class="st43" points="492.9,341.5 508.1,343.4 492.5,370.3 			"/>
			<polygon class="st41" points="492.9,341.5 506,331.5 508.1,343.4 			"/>
			<polygon class="st14" points="308.2,296.7 287.3,312.9 244.3,364.5 291.7,325.3 			"/>
			<polygon class="st24" points="308.2,296.7 316.7,317 291.7,325.3 			"/>
			<polygon class="st27" points="291.7,325.3 320.6,326.3 316.7,317 			"/>
			<polygon class="st14" points="291.7,325.3 295.5,334.6 320.6,326.3 			"/>
			<polygon class="st25" points="292,278.8 287.3,312.9 308.2,296.7 			"/>
			<polygon class="st24" points="292,278.8 276.2,296.9 287.3,312.9 			"/>
			<polygon class="st23" points="291.7,325.3 244.3,364.5 295.5,334.6 			"/>
			<polygon class="st13" points="276.2,296.9 235.3,347.1 214.7,340.6 			"/>
			<polygon class="st7" points="287.3,312.9 235.3,347.1 244.3,364.5 			"/>
			<polygon class="st29" points="276.2,296.9 235.3,347.1 287.3,312.9 			"/>
			<polygon class="st4" points="235.3,347.1 214.3,370.6 244.3,364.5 			"/>
			<polygon class="st5" points="235.3,347.1 203.3,360.9 214.7,340.6 			"/>
			<polygon class="st9" points="235.3,347.1 214.3,370.6 203.3,360.9 			"/>
			<polygon class="st11" points="214.7,340.6 209.8,341.3 203.3,360.9 			"/>
			<polygon class="st44" points="214.7,340.6 217.4,330.2 209.8,341.3 			"/>
			<polygon class="st24" points="217.4,330.2 229.9,329.7 214.7,340.6 			"/>
			<polygon class="st2" points="229.9,329.7 233.3,313.5 217.4,330.2 			"/>
			<polygon class="st45" points="233.3,313.5 251.7,314.3 229.9,329.7 			"/>
			<polygon class="st46" points="251.7,314.3 240.1,305.7 233.3,313.5 			"/>
			<polygon class="st25" points="251.7,314.3 251.7,309.2 240.1,305.7 			"/>
			<polygon class="st47" points="251.7,309.2 256.8,310.7 251.7,314.3 			"/>
			<polygon class="st39" points="251.7,309.2 257.9,300 256.8,310.7 			"/>
			<polygon class="st33" points="251.7,309.2 247.7,296.1 257.9,300 			"/>
			<polygon class="st35" points="247.7,296.1 240.1,305.7 251.7,309.2 			"/>
			<polygon class="st40" points="247.7,296.1 236.3,297 240.1,305.7 			"/>
			<polygon class="st40" points="240.1,305.7 224.4,309.2 233.3,313.5 			"/>
			<polygon class="st43" points="236.3,297 224.4,309.2 240.1,305.7 			"/>
			<polygon class="st43" points="224.4,309.2 212.3,322 233.3,313.5 			"/>
			<polygon class="st41" points="236.3,297 210,310.7 224.4,309.2 			"/>
			<polygon class="st41" points="212.3,322 217.4,330.2 233.3,313.5 			"/>
			<polygon class="st48" points="210,310.7 212.3,322 224.4,309.2 			"/>
			<polygon class="st48" points="212.3,322 208.2,333.7 217.4,330.2 			"/>
			<polygon class="st49" points="212.3,322 201.2,330.6 208.2,333.7 			"/>
			<polygon class="st49" points="212.3,322 207.9,312.9 210,310.7 			"/>
			<polygon class="st50" points="212.3,322 202.3,322.9 201.2,330.6 			"/>
			<polygon class="st48" points="212.3,322 207.9,312.9 202.3,322.9 			"/>
		</g>
		<g>
			<polygon class="st51" points="378,184.8 363.7,166.8 363.9,178.9 			"/>
			<polygon class="st52" points="389.1,136.1 404.4,143.9 403.7,130.5 			"/>
			<polygon class="st53" points="389.1,136.1 376.4,122.2 403.7,130.5 			"/>
			<polygon class="st53" points="389.1,136.1 377.5,140.2 376.4,122.2 			"/>
			<polygon class="st38" points="376.4,122.2 359.9,139.6 377.5,140.2 			"/>
			<polygon class="st54" points="363.7,166.8 370,152.5 380.5,165.9 			"/>
			<polygon class="st55" points="363.7,166.8 377.4,184.7 380.5,165.9 			"/>
			<polygon class="st55" points="363.7,166.8 363,153.4 370,152.5 			"/>
			<polygon class="st54" points="380.5,165.9 389.6,159.1 379,155.5 370,152.5 			"/>
			<polygon class="st51" points="389.6,159.1 384.5,152 379,155.5 			"/>
			<polygon class="st56" points="378.4,150.3 384.5,152 379,155.5 			"/>
			<polygon class="st54" points="389.6,159.1 394.7,164.7 380.5,165.9 			"/>
			<polygon class="st54" points="394.7,164.7 395.8,170.7 388.3,171.3 			"/>
			<polygon class="st54" points="394.7,164.7 380.5,165.9 388.3,171.3 			"/>
			<polygon class="st54" points="388.3,171.3 384.7,175.7 377.4,184.7 380.5,165.9 			"/>
			<polygon class="st56" points="384.7,175.7 395.8,170.7 388.3,171.3 384.4,172.9 			"/>
			<polygon class="st56" points="395.8,170.7 384.7,175.7 394.6,175.7 396.4,173.5 			"/>
			<polygon class="st57" points="389.6,178.7 384.7,175.7 394.6,175.7 			"/>
			<polygon class="st51" points="400.7,171.8 395.8,170.7 396.4,173.5 394.6,175.7 392.2,185.8 			"/>
			<polygon class="st55" points="377.4,184.7 384.7,175.7 389.6,178.7 394.6,175.7 392.2,185.8 			"/>
			<polygon class="st58" points="389.6,159.1 390.3,150.2 384.5,152 			"/>
			<polygon class="st55" points="395.8,170.7 398.5,165.6 394.7,164.7 			"/>
			<polygon class="st58" points="390.3,150.2 394.7,164.7 389.6,159.1 			"/>
			<polygon class="st59" points="390.3,150.2 378.4,150.3 384.5,152 			"/>
			<polygon class="st54" points="390.3,150.2 389.1,136.1 377.5,140.2 			"/>
			<polygon class="st51" points="378.4,150.3 377.5,140.2 390.3,150.2 			"/>
			<polygon class="st56" points="370,152.5 377.5,140.2 379,155.5 			"/>
			<polygon class="st53" points="359.9,139.6 377.5,140.2 370,152.5 			"/>
			<polygon class="st53" points="359.9,139.6 355.4,163 363,153.4 			"/>
			<polygon class="st52" points="359.9,139.6 363,153.4 370,152.5 			"/>
			<polygon class="st52" points="355.4,163 363.7,166.8 363,153.4 			"/>
			<polygon class="st55" points="390.3,150.2 404.8,153.7 404.4,143.9 389.1,136.1 			"/>
			<polygon class="st54" points="390.3,150.2 394.7,164.7 398.5,165.6 396.7,158.2 395.1,151.3 			"/>
			<polygon class="st59" points="395.1,151.3 404.8,153.7 396.7,158.2 			"/>
			<polygon class="st51" points="396.7,158.2 401,161 404.8,153.7 			"/>
			<polygon class="st51" points="400.7,171.8 401,161 395.8,170.7 			"/>
			<polygon class="st55" points="398.5,165.6 401,161 396.7,158.2 			"/>
			<polygon class="st53" points="355.4,163 363.9,178.9 363.7,166.8 			"/>
			<polygon class="st53" points="359.9,139.6 368.1,130.8 352,137.7 			"/>
			<polygon class="st38" points="359.9,139.6 355.4,163 352,137.7 			"/>
			<polygon class="st52" points="348.8,150.5 355.4,163 352,137.7 			"/>
			<polygon class="st57" points="389.6,178.7 377.4,184.7 392.2,185.8 			"/>
		</g>
	</g>
</g>
<g id="RIGHT_HAND">
</g>
<g id="RIGHT_ARM">
</g>
<g id="LEFT_FOOT_1_">
</g>
<g id="LEFT_LEG_CALF">
</g>
<g id="LEFT_LEG_THIGH">
	<g id="LEFT_FOOT">
	</g>
</g>
<g id="TORSO">
</g>
<g id="LEFT_HAND">
</g>
<g id="LEFT_ARM">
</g>
<g id="pencil">
</g>
</svg>
