<?xml version="1.0" encoding="utf-8"?>
<!-- Generator: Adobe Illustrator 19.1.0, SVG Export Plug-In . SVG Version: 6.00 Build 0)  -->
<svg version="1.1" xmlns="http://www.w3.org/2000/svg" xmlns:xlink="http://www.w3.org/1999/xlink" x="0px" y="0px"
	 viewBox="0 0 639.7 540.8" style="enable-background:new 0 0 639.7 540.8;" xml:space="preserve">
<style type="text/css">
	.st0{fill:#FFC59C;}
	.st1{fill:#DCDCDC;}
	.st2{fill:#FEC8AA;}
	.st3{fill:#E8B294;}
	.st4{fill:#D09A7C;}
	.st5{fill:#F1BB9D;}
	.st6{fill:#B98365;}
	.st7{fill:#CB9577;}
	.st8{fill:#E3AD8F;}
	.st9{fill:#DBA587;}
	.st10{fill:#F8C2A4;}
	.st11{fill:#FFD3B5;}
	.st12{fill:#FFD0B2;}
	.st13{fill:#F7C1A3;}
	.st14{fill:#C28C6E;}
	.st15{fill:#005BAC;}
	.st16{fill:#71D7FF;}
	.st17{fill:#65CBFF;}
	.st18{fill:#49AFFF;}
	.st19{fill:#3096E8;}
	.st20{fill:#197FD1;}
	.st21{fill:#2187D9;}
	.st22{fill:#AA7456;}
	.st23{fill:#BA8466;}
	.st24{fill:#EFB99B;}
	.st25{fill:#EAB496;}
	.st26{fill:#C18B6D;}
	.st27{fill:#D49E80;}
	.st28{fill:#D59F81;}
	.st29{fill:#D9A385;}
	.st30{fill:#0B71C3;}
	.st31{fill:#DBC775;}
	.st32{fill:#F9DF6E;}
	.st33{fill:#D89032;}
	.st34{fill:#EFAC6A;}
	.st35{fill:#DB9D5A;}
	.st36{fill:#D39590;}
	.st37{fill:#F2D144;}
	.st38{fill:#998B4F;}
	.st39{fill:#BF8F56;}
	.st40{fill:#C17465;}
	.st41{fill:#DB5D31;}
	.st42{fill:#DB4831;}
	.st43{fill:#D16B50;}
	.st44{fill:#F7F0D2;}
	.st45{fill:#FDC7A9;}
	.st46{fill:#F2C7A7;}
	.st47{fill:#CC9678;}
	.st48{fill:#CC6D92;}
	.st49{fill:#C1859D;}
	.st50{fill:#D34071;}
	.st51{fill:#FFC69D;}
	.st52{fill:#82722E;}
	.st53{fill:#B2A157;}
	.st54{fill:#FFE6BE;}
	.st55{fill:#FFD0A7;}
	.st56{fill:#D89D74;}
	.st57{fill:#FFDAB2;}
	.st58{fill:#C48A61;}
	.st59{fill:#965B32;}
	.st60{fill:#E8E5D9;}
	.st61{fill:#F7FFEF;}
	.st62{fill:#BF8F56;stroke:#000000;stroke-width:0.2;stroke-miterlimit:10;}
	.st63{fill:#F4DBCB;}
	.st64{fill:none;}
	.st65{fill:#976DA0;}
	.st66{fill:#D3A9BC;}
	.st67{fill:#D5B92A;}
	.st68{fill:#CEE0A4;}
	.st69{fill:#EFBB8E;}
	.st70{fill:#FFA53A;}
	.st71{fill:#FFB145;}
	.st72{fill:#FF8015;}
	.st73{fill:#FF9025;}
	.st74{fill:#FF891E;}
	.st75{fill:#FF7005;}
	.st76{fill:#CC6D6C;}
	.st77{fill:#F55900;}
	.st78{fill:#FC6100;}
	.st79{fill:#CE987A;}
	.st80{fill:#DAA486;}
	.st81{fill:#996345;}
	.st82{opacity:0.2;fill:#B55E00;}
	.st83{fill:#C9B0D1;}
	.st84{fill:#FFCEB0;}
	.st85{fill:#BF896B;}
	.st86{fill:#DCA688;}
	.st87{fill:#BD8769;}
	.st88{fill:#D6A082;}
	.st89{fill:#A3A3E5;}
	.st90{fill:#606096;}
	.st91{fill:#F0BA9C;}
	.st92{fill:#BE886A;}
	.st93{fill:#DFA98B;}
	.st94{fill:#FFCFB1;}
	.st95{fill:#F4BEA0;}
	.st96{fill:#DDA789;}
	.st97{fill:#6A6ACE;}
	.st98{fill:#86ECFF;}
	.st99{fill:#67CDFF;}
	.st100{fill:#A4FFFF;}
	.st101{fill:#73D9FF;}
	.st102{fill:#FFDBF3;}
</style>
<g id="RIGHT_FOOT">
</g>
<g id="RIGHT_LEG_CALF">
</g>
<g id="RIGHT_LEG_THIGH">
</g>
<g id="RIGHT_HAND">
</g>
<g id="RIGHT_ARM">
</g>
<g id="LEFT_FOOT_1_">
</g>
<g id="LEFT_LEG_CALF">
</g>
<g id="LEFT_LEG_THIGH">
	<g id="LEFT_FOOT">
	</g>
</g>
<g id="TORSO">
</g>
<g id="LEFT_HAND">
</g>
<g id="LEFT_ARM">
	<g>
		<path class="st46" d="M348,224l4.4,0c3.9,0,7-3.2,6.9-7.1l-0.7-29.5l-17.4-0.2l-0.2,29.8C341,220.9,344.1,224,348,224z"/>
		<g id="head_1_">
			<g>
				<polygon class="st53" points="347.6,192.5 354.5,192.4 364.8,183.5 				"/>
				<polygon class="st54" points="334.8,141.3 345.5,136.5 366.6,141.3 363.9,153.6 354.7,156.3 352.5,161.4 355.1,178 346.3,178 
					349,161.4 346.8,156.3 337.6,153.6 				"/>
				<rect x="346.5" y="170.3" class="st60" width="8.6" height="2.8"/>
				<polygon class="st54" points="349,161.4 346.3,178 330.7,162.5 				"/>
				<polygon class="st61" points="330.7,162.5 332,172.4 336.6,183.2 				"/>
				<polygon class="st55" points="330.7,162.5 346.3,178 343.8,179.4 336.7,183.5 				"/>
				<polygon class="st56" points="349,161.4 346.8,156.3 340.7,157.8 				"/>
				<polygon class="st55" points="330.7,162.5 340.7,157.8 349,161.4 				"/>
				<polygon class="st55" points="336.7,183.5 347.6,192.5 344.7,182.5 343.8,179.4 				"/>
				<polygon class="st44" points="347.6,192.5 344.7,182.5 356,182.5 				"/>
				<polygon class="st55" points="364.8,183.5 358.3,179.8 347.6,192.5 				"/>
				<polygon class="st56" points="346.3,178 355.1,178 358.3,179.8 356,182.5 344.7,182.5 343.8,179.4 				"/>
				<polygon class="st59" points="346.8,156.3 337.6,153.6 340.7,157.8 				"/>
				<polygon class="st51" points="340.7,157.8 330.7,162.5 331,153 337.6,153.6 				"/>
				<polygon class="st55" points="331,153 334.8,141.3 337.6,153.6 				"/>
				<polygon class="st52" points="330.7,162.5 328.6,160.2 328,147.7 331,153 				"/>
				<polygon class="st51" points="352.5,161.4 355.1,178 370.8,162.5 				"/>
				<polygon class="st59" points="352.5,161.4 354.7,156.3 360.7,157.8 				"/>
				<polygon class="st56" points="370.8,162.5 360.7,157.8 352.5,161.4 				"/>
				<polygon class="st32" points="354.7,156.3 363.9,153.6 360.7,157.8 				"/>
				<polygon class="st51" points="360.7,157.8 370.8,162.5 370.4,153 363.9,153.6 				"/>
				<polygon class="st55" points="370.4,153 366.6,141.3 363.9,153.6 				"/>
				<polygon class="st52" points="370.8,162.5 372.8,160.2 373.4,147.7 370.4,153 				"/>
				<polygon class="st55" points="328.6,160.2 327.1,162.3 332,172.4 330.7,162.5 				"/>
				<polygon class="st38" points="328,147.7 334.8,141.3 331,153 				"/>
				<polygon class="st53" points="328,147.7 332.9,133.8 334.8,141.3 				"/>
				<polygon class="st53" points="345.5,136.5 332.9,133.8 334.8,141.3 				"/>
				<polygon class="st38" points="345.5,136.5 332.9,133.8 343.7,125.8 				"/>
				<polygon class="st53" points="345.5,136.5 363.1,127.3 343.7,125.8 				"/>
				<polygon class="st52" points="345.5,136.5 363.1,127.3 366.6,141.3 				"/>
				<polygon class="st38" points="373.4,147.7 370.4,153 366.6,141.3 				"/>
				<polygon class="st55" points="370.8,162.5 355.1,178 358.3,179.8 364.8,183.5 				"/>
				<polygon class="st53" points="370.8,162.5 369.5,172.4 364.8,183.5 				"/>
				<polygon class="st55" points="372.8,160.2 374.3,162.3 369.5,172.4 370.8,162.5 				"/>
				<polygon class="st38" points="371.3,140.1 363.1,127.3 366.6,141.3 				"/>
				<polygon class="st52" points="371.3,140.1 373.4,147.7 366.6,141.3 				"/>
			</g>
		</g>
		<polygon class="st4" points="361.5,196.5 358.5,209.6 354.5,192.4 		"/>
		<polygon class="st46" points="324.7,223.4 358.5,209.6 341.2,187.2 		"/>
		<polygon class="st4" points="361.5,196.5 354.5,192.4 358.6,187.4 377.9,196.4 		"/>
		<polygon class="st63" points="341.2,187.2 324.7,223.4 321.4,199 		"/>
		<polygon class="st22" points="347.6,192.5 358.5,209.6 341.2,187.2 		"/>
		<polygon class="st4" points="347.6,192.5 358.5,209.6 354.5,192.4 		"/>
		<polygon class="st8" points="412.4,215.8 395.3,223.7 382.9,205.1 		"/>
		<polygon class="st14" points="270.5,249.2 284.6,251.8 258.3,262 		"/>
		<polygon class="st10" points="270.5,249.2 287.3,210.4 284.6,251.8 		"/>
		<polygon class="st8" points="287.3,210.4 325.2,216.6 284.6,251.8 		"/>
		<polygon class="st22" points="258.3,262 250.3,299.4 284.7,261.3 		"/>
		<polygon class="st8" points="284.7,261.3 262.5,305.8 250.3,299.4 		"/>
		<polygon class="st25" points="241.7,308.5 233.8,318.1 232.2,311 		"/>
		<polygon class="st24" points="233.8,318.1 234.5,325.5 229.1,321.8 		"/>
		<polygon class="st22" points="250.3,299.4 255.8,314.6 262.5,305.8 		"/>
		<polygon class="st23" points="250.3,299.4 242.5,305 255.8,314.6 		"/>
		<polygon class="st22" points="242.5,305 244.1,315.1 255.8,314.6 		"/>
		<polygon class="st23" points="242.5,305 235.5,305.9 244.1,315.1 		"/>
		<polygon class="st26" points="241.7,308.5 244.1,325.2 233.8,318.1 		"/>
		<polygon class="st23" points="233.8,318.1 244.1,325.2 234.5,325.5 		"/>
		<polygon class="st14" points="235.5,305.9 244.1,315.1 237.9,322.6 		"/>
		<polygon class="st14" points="234.5,325.5 236.3,326.1 244.1,325.2 		"/>
		<polygon class="st7" points="258.3,262 284.6,251.8 284.7,261.3 		"/>
		<polygon class="st12" points="383.2,194.7 404.6,196.6 382.9,205.1 		"/>
		<polygon class="st10" points="382.9,205.1 404.6,196.6 412.4,215.8 		"/>
		<polygon class="st2" points="351.3,197.7 363.7,215.8 343.7,219 		"/>
		<polygon class="st3" points="371.6,196 363.7,215.8 351.3,197.7 		"/>
		<polygon class="st4" points="343.7,219 320.6,228.6 323.7,205.9 		"/>
		<polygon class="st5" points="343.7,219 359.3,231.1 363.7,215.8 		"/>
		<polygon class="st6" points="343.7,219 332.4,239.7 343.7,219 		"/>
		<polygon class="st7" points="343.7,219 332.4,239.7 320.6,228.6 		"/>
		<polygon class="st7" points="343.7,219 359.3,231.1 332.4,239.7 		"/>
		<polygon class="st8" points="321.4,199 304.5,236.7 309.6,201.9 		"/>
		<polygon class="st5" points="309.6,201.9 300.7,202 305.4,227.9 		"/>
		<polygon class="st9" points="300.7,202 287.3,210.4 305.4,227.9 		"/>
		<polygon class="st4" points="287.3,210.4 285.8,224.6 305.4,227.9 		"/>
		<polygon class="st8" points="305.4,227.9 304.5,236.7 285.8,224.6 		"/>
		<polygon class="st8" points="400,228.1 411.6,239.9 385.6,234.1 		"/>
		<polygon class="st10" points="412.4,215.8 420.3,234.6 400,228.1 		"/>
		<polygon class="st11" points="420.3,234.6 411.6,239.9 400,228.1 		"/>
		<polygon class="st8" points="411.6,239.9 394.1,243.9 385.6,234.1 		"/>
		<polygon class="st12" points="420.3,234.6 435.8,258 411.6,239.9 		"/>
		<polygon class="st8" points="435.8,258 411.6,239.9 426.4,277.8 		"/>
		<polygon class="st7" points="411.6,239.9 410.5,274.6 426.4,277.8 		"/>
		<polygon class="st14" points="411.6,239.9 394.1,243.9 410.5,274.6 		"/>
		<polygon class="st16" points="373.8,197.2 383.2,194.7 382.6,232.5 		"/>
		<polygon class="st8" points="383.2,194.7 380.5,203 382.6,232.5 		"/>
		<polygon class="st4" points="380.5,203 404.8,224 382.6,232.5 		"/>
		<polygon class="st10" points="404.8,224 403,235.8 382.6,232.5 		"/>
		<polygon class="st20" points="403,235.8 390,249.7 396.9,249.7 		"/>
		<polygon class="st21" points="403,235.8 382.6,232.5 390,249.7 		"/>
		<polygon class="st15" points="390,249.7 396.9,249.7 392.7,266.6 		"/>
		<polygon class="st16" points="321.4,199 323.7,205.9 310,220.9 		"/>
		<polygon class="st17" points="323.7,205.9 320.6,228.6 310,220.9 		"/>
		<polygon class="st18" points="320.6,228.6 304.5,236.7 310,220.9 		"/>
		<polygon class="st16" points="371.6,196 373.8,197.2 363.7,215.8 		"/>
		<polygon class="st17" points="373.8,197.2 382.6,232.5 363.7,215.8 		"/>
		<polygon class="st18" points="363.7,215.8 359.3,231.1 382.6,232.5 		"/>
		<polygon class="st19" points="382.6,232.5 390,249.7 359.3,231.1 		"/>
		<polygon class="st20" points="392.7,266.6 381.5,289.3 395.5,251.6 		"/>
		<polygon class="st21" points="392.7,266.6 372.2,297.5 386.9,290.3 		"/>
		<polygon class="st21" points="320.6,228.6 311.4,263.8 304.5,236.7 		"/>
		<polygon class="st19" points="320.6,228.6 332.4,239.7 311.4,263.8 		"/>
		<polygon class="st19" points="332.4,239.7 352,289.2 359.3,231.1 		"/>
		<polygon class="st21" points="359.3,231.1 390,249.7 352,289.2 		"/>
		<polygon class="st20" points="390,249.7 392.7,266.6 352,289.2 		"/>
		<polygon class="st20" points="311.4,263.8 321,285.8 352,289.2 		"/>
		<polygon class="st21" points="321,285.8 320.7,295.7 352,289.2 		"/>
		<polygon class="st20" points="352,289.2 351.5,299.6 320.7,295.7 		"/>
		<polygon class="st21" points="352,289.2 372.2,297.5 351.5,299.6 		"/>
		<polygon class="st15" points="392.7,266.6 352,289.2 372.2,297.5 		"/>
		<polygon class="st15" points="332.4,239.7 352,289.2 311.4,263.8 		"/>
		<polygon class="st24" points="386.9,290.3 392.5,314.7 372.2,297.5 		"/>
		<polygon class="st25" points="372.2,297.5 368.6,315.8 392.5,314.7 		"/>
		<polygon class="st26" points="372.2,297.5 351.5,299.6 368.6,315.8 		"/>
		<polygon class="st27" points="351.5,299.6 331.9,311.6 368.6,315.8 		"/>
		<polygon class="st14" points="351.5,299.6 320.7,295.7 331.9,311.6 		"/>
		<polygon class="st28" points="320.7,295.7 318.5,309.9 331.9,311.6 		"/>
		<polygon class="st12" points="426.4,277.8 409.1,235.3 391.5,239.1 		"/>
		<polygon class="st13" points="426.4,277.8 422.9,277.6 391.5,239.1 		"/>
		<polygon class="st13" points="422.9,277.6 405,257.5 409,278.2 		"/>
		<polygon class="st8" points="422.9,277.6 405,257.5 391.5,239.1 		"/>
		<polygon class="st12" points="409.1,235.3 401.7,221.2 406.6,227.9 		"/>
		<polygon class="st12" points="401.7,221.2 411.8,221.3 411,210.5 		"/>
		<polygon class="st13" points="409.1,235.3 392.6,236.1 391.5,239.1 		"/>
		<polygon class="st8" points="409.1,235.3 401.7,221.2 392.6,236.1 		"/>
		<polygon class="st8" points="406.6,227.9 411.8,221.3 401.7,221.2 		"/>
		<polygon class="st14" points="401.7,221.2 397.5,211.5 411,210.5 		"/>
		<polygon class="st22" points="397.5,211.5 386.4,212.9 392.6,236.1 		"/>
		<polygon class="st23" points="401.7,221.2 385.6,223.4 397.5,211.5 		"/>
		<polygon class="st14" points="401.7,221.2 392.6,236.1 385.6,223.4 		"/>
		<polygon class="st7" points="411,210.5 401.1,207.4 397.5,211.5 		"/>
		<polygon class="st31" points="371.3,510.9 363.8,516.1 369.9,493.2 		"/>
		<polygon class="st32" points="371.3,510.9 371.7,526.4 363.8,516.1 		"/>
		<polygon class="st32" points="371.3,510.9 374.4,492.3 369.9,493.2 		"/>
		<polygon class="st33" points="369.9,493.2 353.2,494.2 363.8,516.1 		"/>
		<polygon class="st31" points="369.9,493.2 371.8,486.9 374.4,492.3 		"/>
		<polygon class="st34" points="363.8,516.1 363.8,524.4 353.2,494.2 		"/>
		<polygon class="st35" points="363.8,524.4 367.2,537.6 369,524.4 		"/>
		<polygon class="st36" points="367.2,537.6 355.9,539.8 363.8,524.4 		"/>
		<polygon class="st37" points="363.8,516.1 369,524.4 371.7,526.4 		"/>
		<polygon class="st33" points="371.7,526.4 367.2,537.6 369,524.4 		"/>
		<polygon class="st38" points="359.7,493.8 371.8,486.9 369.9,493.2 		"/>
		<polygon class="st39" points="359.7,493.8 362.7,479 371.8,486.9 		"/>
		<polygon class="st40" points="359.7,493.8 359.6,479.3 362.7,479 		"/>
		<polygon class="st41" points="359.7,493.8 354,485.9 359.6,479.3 		"/>
		<polygon class="st42" points="359.7,493.8 353.2,494.2 354,485.9 		"/>
		<polygon class="st43" points="363.8,524.4 349.4,528.1 353.2,494.2 		"/>
		<polygon class="st41" points="363.8,524.4 355.9,539.8 349.4,528.1 		"/>
		<polygon class="st39" points="363.8,524.4 363.8,516.1 369,524.4 		"/>
		<polygon class="st41" points="330.7,488 338.8,493.3 334.1,473 		"/>
		<polygon class="st42" points="330.7,488 328.8,501.2 338.8,493.3 		"/>
		<polygon class="st43" points="330.7,488 329.1,471.6 334.1,473 		"/>
		<polygon class="st43" points="334.1,473 352.9,476 338.8,493.3 		"/>
		<polygon class="st31" points="334.1,473 333.7,457.4 329.1,471.6 		"/>
		<polygon class="st34" points="338.8,493.3 337.9,500.4 352.9,476 		"/>
		<polygon class="st40" points="337.9,500.4 332.8,511.3 332.1,499.8 		"/>
		<polygon class="st36" points="332.8,511.3 345.4,514.6 337.9,500.4 		"/>
		<polygon class="st43" points="338.8,493.3 332.1,499.8 328.8,501.2 		"/>
		<polygon class="st36" points="328.8,501.2 332.8,511.3 332.1,499.8 		"/>
		<polygon class="st38" points="345.6,474.8 333.7,457.4 334.1,473 		"/>
		<polygon class="st39" points="345.6,474.8 344.8,451.8 333.7,457.4 		"/>
		<polygon class="st40" points="345.6,474.8 348.1,452.5 344.8,451.8 		"/>
		<polygon class="st41" points="345.6,474.8 353.9,458.8 348.1,452.5 		"/>
		<polygon class="st42" points="345.6,474.8 352.9,476 353.9,458.8 		"/>
		<polygon class="st31" points="337.9,500.4 353.8,505.5 352.9,476 		"/>
		<polygon class="st33" points="337.9,500.4 345.4,514.6 353.8,505.5 		"/>
		<polygon class="st38" points="337.9,500.4 338.8,493.3 332.1,499.8 		"/>
		<ellipse class="st64" cx="383.7" cy="337.5" rx="13.9" ry="11.5"/>
		<polygon class="st15" points="392.5,314.7 368.6,315.8 380,321.4 		"/>
		<polygon class="st65" points="380,321.4 388.1,335.3 361.5,342.9 		"/>
		<polygon class="st66" points="380,321.4 388.1,335.3 392.5,314.7 		"/>
		<g id="right_leg_1_">
			<ellipse class="st67" cx="383.7" cy="337.5" rx="13.9" ry="11.5"/>
			<polygon class="st29" points="396.3,323.7 400,355.5 380,321.4 			"/>
			<polygon class="st20" points="396.3,323.7 392.5,314.7 380,321.4 			"/>
			<polygon class="st5" points="361.5,342.9 400,355.5 380,321.4 			"/>
			<polygon class="st29" points="361.5,342.9 400,355.5 383.2,365.3 			"/>
			<polygon class="st23" points="361.5,342.9 359.8,359.5 383.2,365.3 			"/>
			<polygon class="st23" points="389.8,403.4 400,355.5 383.2,365.3 			"/>
			<polygon class="st13" points="389.8,403.4 375.6,394.5 383.2,365.3 			"/>
			<polygon class="st2" points="389.8,403.4 375.6,394.5 384.9,424.5 			"/>
			<polygon class="st24" points="363.6,397.2 375.6,394.5 384.9,424.5 			"/>
			<polygon class="st5" points="363.6,397.2 368.4,430 384.9,424.5 			"/>
			<polygon class="st13" points="363.6,397.2 368.4,430 361.1,415.4 			"/>
			<polygon class="st12" points="361.5,428.2 368.4,430 361.1,415.4 			"/>
			<polygon class="st29" points="386.6,435 368.4,430 384.9,424.5 			"/>
			<polygon class="st23" points="386.6,435 368.4,430 372.7,487.4 			"/>
			<polygon class="st29" points="357.6,465.2 368.4,430 372.7,487.4 			"/>
			<polygon class="st5" points="357.6,465.2 368.4,430 361.5,428.2 			"/>
			<polygon class="st12" points="357.6,465.2 358.9,482.9 372.7,487.4 			"/>
			<polygon class="st12" points="336.3,456.3 345.8,464.5 353.2,457.2 			"/>
			<polygon class="st25" points="363.6,397.2 375.6,394.5 383.2,365.3 			"/>
			<polygon class="st29" points="363.6,397.2 359.8,359.5 383.2,365.3 			"/>
		</g>
		<polygon class="st14" points="318.5,309.9 329,332.2 364.4,364.7 341.2,331.7 		"/>
		<polygon class="st24" points="318.5,309.9 368.4,332.1 341.2,331.7 		"/>
		<polygon class="st25" points="313.1,320 329,332.2 318.5,309.9 		"/>
		<polygon class="st24" points="313.1,320 311.2,343.9 329,332.2 		"/>
		<polygon class="st24" points="341.2,331.7 364.4,364.7 350.4,331 		"/>
		<polygon class="st13" points="311.2,343.9 346.6,367.1 335.7,377.8 		"/>
		<polygon class="st7" points="329,332.2 346.6,367.1 364.4,364.7 		"/>
		<polygon class="st29" points="311.2,343.9 346.6,367.1 329,332.2 		"/>
		<polygon class="st4" points="346.6,367.1 362.3,382.7 364.4,364.7 		"/>
		<polygon class="st5" points="346.6,367.1 351,387.4 335.7,377.8 		"/>
		<polygon class="st9" points="346.6,367.1 362.3,382.7 351,387.4 		"/>
		<line class="st12" x1="368.3" y1="381" x2="352.4" y2="372.6"/>
		<polygon class="st29" points="352.4,372.6 362.2,395.5 336,378.7 		"/>
		<polygon class="st8" points="364.4,364.7 362.2,395.5 352.4,372.6 		"/>
		<polygon class="st10" points="362.2,395.5 336.9,387 336,378.7 		"/>
		<polygon class="st4" points="362.2,395.5 336.5,423.5 346.5,390.2 		"/>
		<polygon class="st23" points="346.5,390.2 333.1,408 336.5,423.5 		"/>
		<polygon class="st4" points="346.5,390.2 336.9,387 333.1,408 		"/>
		<polygon class="st4" points="336.5,423.5 353.2,457.2 336.3,456.3 		"/>
		<polygon class="st5" points="336.5,423.5 361.3,427.5 353.2,457.2 		"/>
		<polygon class="st11" points="361.3,427.5 364.5,413.7 362.2,395.5 		"/>
		<polygon class="st10" points="362.2,395.5 336.5,423.5 361.3,427.5 		"/>
		<polygon class="st17" points="368.6,315.8 341.6,324.5 352.8,342.9 		"/>
		<polygon class="st19" points="368.6,315.8 380,321.4 352.8,342.9 		"/>
		<polygon class="st21" points="361.5,342.9 380,321.4 352.8,342.9 		"/>
		<polygon class="st17" points="318.5,309.9 331.9,311.6 341.6,324.5 		"/>
		<polygon class="st19" points="368.6,315.8 341.6,324.5 331.9,311.6 		"/>
	</g>
</g>
<g id="pencil">
</g>
</svg>
