<?xml version="1.0" encoding="utf-8"?>
<!-- Generator: Adobe Illustrator 19.1.0, SVG Export Plug-In . SVG Version: 6.00 Build 0)  -->
<svg version="1.1" xmlns="http://www.w3.org/2000/svg" xmlns:xlink="http://www.w3.org/1999/xlink" x="0px" y="0px"
	 viewBox="0 0 639.7 540.8" style="enable-background:new 0 0 639.7 540.8;" xml:space="preserve">
<style type="text/css">
	.st0{fill:#FFC59C;}
	.st1{fill:#DCDCDC;}
	.st2{fill:#FEC8AA;}
	.st3{fill:#E8B294;}
	.st4{fill:#D09A7C;}
	.st5{fill:#F1BB9D;}
	.st6{fill:#B98365;}
	.st7{fill:#CB9577;}
	.st8{fill:#E3AD8F;}
	.st9{fill:#DBA587;}
	.st10{fill:#F8C2A4;}
	.st11{fill:#FFD3B5;}
	.st12{fill:#FFD0B2;}
	.st13{fill:#F7C1A3;}
	.st14{fill:#C28C6E;}
	.st15{fill:#005BAC;}
	.st16{fill:#71D7FF;}
	.st17{fill:#65CBFF;}
	.st18{fill:#49AFFF;}
	.st19{fill:#3096E8;}
	.st20{fill:#197FD1;}
	.st21{fill:#2187D9;}
	.st22{fill:#AA7456;}
	.st23{fill:#BA8466;}
	.st24{fill:#EFB99B;}
	.st25{fill:#EAB496;}
	.st26{fill:#C18B6D;}
	.st27{fill:#D49E80;}
	.st28{fill:#D59F81;}
	.st29{fill:#D9A385;}
	.st30{fill:#0B71C3;}
	.st31{fill:#DBC775;}
	.st32{fill:#F9DF6E;}
	.st33{fill:#D89032;}
	.st34{fill:#EFAC6A;}
	.st35{fill:#DB9D5A;}
	.st36{fill:#D39590;}
	.st37{fill:#F2D144;}
	.st38{fill:#998B4F;}
	.st39{fill:#BF8F56;}
	.st40{fill:#C17465;}
	.st41{fill:#DB5D31;}
	.st42{fill:#DB4831;}
	.st43{fill:#D16B50;}
	.st44{fill:#F7F0D2;}
	.st45{fill:#FDC7A9;}
	.st46{fill:#F2C7A7;}
	.st47{fill:#CC9678;}
	.st48{fill:#CC6D92;}
	.st49{fill:#C1859D;}
	.st50{fill:#D34071;}
	.st51{fill:#FFC69D;}
	.st52{fill:#82722E;}
	.st53{fill:#B2A157;}
	.st54{fill:#FFE6BE;}
	.st55{fill:#FFD0A7;}
	.st56{fill:#D89D74;}
	.st57{fill:#FFDAB2;}
	.st58{fill:#C48A61;}
	.st59{fill:#965B32;}
	.st60{fill:#E8E5D9;}
	.st61{fill:#F7FFEF;}
	.st62{fill:#BF8F56;stroke:#000000;stroke-width:0.2;stroke-miterlimit:10;}
	.st63{fill:#F4DBCB;}
	.st64{fill:none;}
	.st65{fill:#976DA0;}
	.st66{fill:#D3A9BC;}
	.st67{fill:#D5B92A;}
	.st68{fill:#CEE0A4;}
	.st69{fill:#EFBB8E;}
	.st70{fill:#FFA53A;}
	.st71{fill:#FFB145;}
	.st72{fill:#FF8015;}
	.st73{fill:#FF9025;}
	.st74{fill:#FF891E;}
	.st75{fill:#FF7005;}
	.st76{fill:#CC6D6C;}
	.st77{fill:#F55900;}
	.st78{fill:#FC6100;}
	.st79{fill:#CE987A;}
	.st80{fill:#DAA486;}
	.st81{fill:#996345;}
	.st82{opacity:0.2;fill:#B55E00;}
	.st83{fill:#C9B0D1;}
	.st84{fill:#FFCEB0;}
	.st85{fill:#BF896B;}
	.st86{fill:#DCA688;}
	.st87{fill:#BD8769;}
	.st88{fill:#D6A082;}
	.st89{fill:#A3A3E5;}
	.st90{fill:#606096;}
	.st91{fill:#F0BA9C;}
	.st92{fill:#BE886A;}
	.st93{fill:#DFA98B;}
	.st94{fill:#FFCFB1;}
	.st95{fill:#F4BEA0;}
	.st96{fill:#DDA789;}
	.st97{fill:#6A6ACE;}
	.st98{fill:#86ECFF;}
	.st99{fill:#67CDFF;}
	.st100{fill:#A4FFFF;}
	.st101{fill:#73D9FF;}
	.st102{fill:#FFDBF3;}
</style>
<g id="RIGHT_FOOT">
</g>
<g id="RIGHT_LEG_CALF">
</g>
<g id="RIGHT_LEG_THIGH">
</g>
<g id="RIGHT_HAND">
</g>
<g id="RIGHT_ARM">
</g>
<g id="LEFT_FOOT_1_">
</g>
<g id="LEFT_LEG_CALF">
</g>
<g id="LEFT_LEG_THIGH">
	<g id="LEFT_FOOT">
	</g>
</g>
<g id="TORSO">
</g>
<g id="LEFT_HAND">
</g>
<g id="LEFT_ARM">
	<g>
		<polygon class="st48" points="393.7,480.5 380.4,502.7 404.8,504.1 		"/>
		<polygon class="st70" points="404.8,504.1 400.7,521.1 415.1,520.7 		"/>
		<polygon class="st71" points="415.1,520.7 411.3,527.4 400.7,521.1 		"/>
		<polygon class="st71" points="404.8,504.1 400.7,521.1 385.2,510.9 		"/>
		<polygon class="st72" points="404.8,504.1 385.2,510.9 380.4,502.7 		"/>
		<polygon class="st75" points="393.7,480.5 380.4,502.7 372.1,472.5 		"/>
		<polygon class="st78" points="372.1,472.5 355.4,485.8 374.6,481.6 		"/>
		<polygon class="st78" points="374.6,481.6 369.1,500.6 380.4,502.7 		"/>
		<polygon class="st48" points="374.6,481.6 369.1,500.6 355.4,485.8 		"/>
		<polygon class="st14" points="358,342.8 348.4,365.2 336.7,427.5 357.4,374.7 		"/>
		<polygon class="st24" points="358,342.8 373.7,357.9 357.4,374.7 		"/>
		<polygon class="st27" points="357.4,374.7 380.8,364.8 373.7,357.9 		"/>
		<polygon class="st14" points="357.4,374.7 372.5,385.3 380.8,364.8 		"/>
		<polygon class="st25" points="337.2,332.8 348.4,365.2 358,342.8 		"/>
		<polygon class="st24" points="337.2,332.8 332.5,354.9 348.4,365.2 		"/>
		<polygon class="st23" points="357.4,374.7 336.7,427.5 372.5,385.3 		"/>
		<polygon class="st13" points="332.5,354.9 321.9,415.2 302.6,417 		"/>
		<polygon class="st7" points="348.4,365.2 321.9,415.2 336.7,427.5 		"/>
		<polygon class="st29" points="332.5,354.9 321.9,415.2 348.4,365.2 		"/>
		<polygon class="st4" points="321.9,415.2 315.5,444.1 336.7,427.5 		"/>
		<polygon class="st5" points="321.9,415.2 302.5,439.5 302.6,417 		"/>
		<polygon class="st9" points="321.9,415.2 315.5,444.1 302.5,439.5 		"/>
		<polygon class="st11" points="302.6,417 299.1,419.5 302.5,439.5 		"/>
		<polygon class="st0" points="412.9,193.4 410.2,214.8 378.7,202.9 388.5,181.6 		"/>
		<polygon class="st2" points="384.9,193.1 378.7,202.9 400.9,204.4 		"/>
		<polygon class="st3" points="378.2,189.1 378.7,202.9 384.9,193.1 		"/>
		<polygon class="st4" points="400.9,204.4 412.3,223.3 410.7,202.9 		"/>
		<polygon class="st5" points="400.9,204.4 379,222.6 378.7,202.9 		"/>
		<polygon class="st6" points="400.9,204.4 398.8,232.1 390.8,212.8 		"/>
		<polygon class="st7" points="400.9,204.4 398.8,232.1 412.3,223.3 		"/>
		<polygon class="st7" points="390.8,212.8 379,222.6 398.8,232.1 		"/>
		<polygon class="st8" points="412.8,195.7 430.1,241.3 421.3,200.2 		"/>
		<polygon class="st5" points="421.3,200.2 427.9,200.9 423.6,223.8 		"/>
		<polygon class="st9" points="427.9,200.9 440.2,202.9 423.6,223.8 		"/>
		<polyline class="st29" points="430.2,239.9 430.7,241.2 445.6,276.2 464.6,269.8 453.7,214.4 440.2,202.9 		"/>
		<polygon class="st4" points="440.2,202.9 441,222.1 423.6,223.8 		"/>
		<polygon class="st8" points="423.6,223.8 430.1,241.3 441,222.1 		"/>
		<polygon class="st8" points="370,189.5 364,189.2 369.5,224.6 		"/>
		<polygon class="st8" points="364,189.2 355.5,195.5 369.5,224.6 		"/>
		<polygon class="st4" points="355.5,195.5 340.1,214.9 369.5,224.6 		"/>
		<polygon class="st10" points="340.1,214.9 348.5,224.7 369.5,224.6 		"/>
		<polygon class="st9" points="355.5,195.5 333.4,194.8 340.1,214.9 		"/>
		<polygon class="st8" points="340.1,214.9 322,198.5 348.5,224.7 		"/>
		<polygon class="st10" points="333.4,194.8 317.5,191.3 340.1,214.9 		"/>
		<polygon class="st11" points="317.5,191.3 322,198.5 340.1,214.9 		"/>
		<polygon class="st8" points="322,198.5 318.9,212.7 338.5,228.9 		"/>
		<polygon class="st8" points="348.5,224.7 349,239 338.5,228.9 		"/>
		<polygon class="st7" points="348.5,224.7 358.7,237.3 349,239 		"/>
		<polygon class="st11" points="348.5,224.7 369.5,224.6 358.7,237.3 		"/>
		<polygon class="st12" points="317.5,191.3 292.8,194.1 322,198.5 		"/>
		<polygon class="st12" points="278.7,219.1 268.9,264.3 257.7,263.9 		"/>
		<polygon class="st13" points="278.7,219.1 268.3,220.9 257.7,263.9 		"/>
		<polygon class="st13" points="268.3,220.9 256,230.4 259.4,205.5 		"/>
		<polygon class="st8" points="268.3,220.9 256,230.4 257.7,263.9 		"/>
		<polygon class="st8" points="292.8,194.1 322,198.5 289.6,197.7 		"/>
		<polygon class="st7" points="322,198.5 295.6,214.7 289.6,197.7 		"/>
		<polygon class="st14" points="322,198.5 318.9,212.7 295.6,214.7 		"/>
		<polygon class="st15" points="358.7,237.3 339.3,240.7 361.3,252.7 		"/>
		<polygon class="st7" points="338.5,228.9 339.3,240.7 349,239 		"/>
		<polygon class="st16" points="412.8,195.7 410.7,202.9 420.4,217.3 		"/>
		<polygon class="st17" points="410.7,202.9 412.3,223.3 420.4,217.3 		"/>
		<polygon class="st18" points="412.3,223.3 430.1,241.3 420.4,217.3 		"/>
		<polygon class="st16" points="378.2,189.1 370,189.5 378.7,202.9 		"/>
		<polygon class="st17" points="370,189.5 369.5,224.6 378.7,202.9 		"/>
		<polygon class="st18" points="378.7,202.9 379,222.6 369.5,224.6 		"/>
		<polygon class="st19" points="369.5,224.6 358.7,237.3 379,222.6 		"/>
		<polygon class="st20" points="361.3,252.7 343.3,274.3 339.3,240.7 		"/>
		<polygon class="st21" points="361.3,252.7 361.9,280.8 343.3,274.3 		"/>
		<polygon class="st21" points="412.3,223.3 418.1,255.5 430.1,241.3 		"/>
		<polygon class="st19" points="412.3,223.3 398.8,232.1 418.1,255.5 		"/>
		<polygon class="st19" points="398.8,232.1 381.6,274.9 379,222.6 		"/>
		<polygon class="st21" points="379,222.6 358.7,237.3 381.6,274.9 		"/>
		<polygon class="st20" points="358.7,237.3 361.3,252.7 381.6,274.9 		"/>
		<polygon class="st20" points="418.1,255.5 408.1,274.4 381.6,274.9 		"/>
		<polygon class="st21" points="408.1,274.4 408.1,283.2 381.6,274.9 		"/>
		<polygon class="st20" points="381.6,274.9 381.7,284.3 408.1,283.2 		"/>
		<polygon class="st21" points="381.6,274.9 361.9,280.8 381.7,284.3 		"/>
		<polygon class="st15" points="361.3,252.7 381.6,274.9 361.9,280.8 		"/>
		<polygon class="st15" points="398.8,232.1 381.6,274.9 418.1,255.5 		"/>
		<polygon class="st12" points="268.9,264.3 271,273.4 275.9,268.2 		"/>
		<polygon class="st12" points="271,273.4 279.3,273.5 279.5,279.5 		"/>
		<polygon class="st13" points="268.9,264.3 261.7,264.9 257.7,263.9 		"/>
		<polygon class="st8" points="268.9,264.3 271,273.4 257.7,263.9 		"/>
		<polygon class="st8" points="275.9,268.2 279.3,273.5 271,273.4 		"/>
		<polygon class="st14" points="271,273.4 257.8,295.2 279.5,279.5 		"/>
		<polygon class="st22" points="257.8,295.2 251.7,289.1 258.1,271.3 		"/>
		<polygon class="st23" points="271,273.4 258.1,271.3 257.8,295.2 		"/>
		<polygon class="st14" points="271,273.4 257.7,263.9 258.1,271.3 		"/>
		<polygon class="st7" points="279.5,279.5 268.4,295.3 257.8,295.2 		"/>
		<polygon class="st24" points="343.3,274.3 340.5,303.1 361.9,280.8 		"/>
		<polygon class="st25" points="361.9,280.8 364.5,312.6 340.5,303.1 		"/>
		<polygon class="st26" points="361.9,280.8 381.3,284.3 362.3,312.6 		"/>
		<polygon class="st27" points="381.3,284.3 395.9,311.7 362.3,312.6 		"/>
		<polygon class="st14" points="381.7,284.3 408.1,283.2 395.9,311.7 		"/>
		<polygon class="st28" points="408.1,283.2 402.8,311.2 395.9,311.7 		"/>
		<polygon class="st15" points="402.8,311.2 400.5,333.8 395.9,311.7 		"/>
		<polygon class="st30" points="395.9,311.7 364.5,312.6 400.5,333.8 		"/>
		<polygon class="st15" points="364.5,312.6 394.1,334 400.5,333.8 		"/>
		<polygon class="st30" points="364.5,312.6 384.1,332.4 394.1,334 		"/>
		<polygon class="st21" points="364.5,312.6 355,314.7 384.1,332.4 		"/>
		<polygon class="st20" points="384.1,332.4 378.3,340.2 355,314.7 		"/>
		<polygon class="st15" points="355,314.7 351.4,325.6 378.3,340.2 		"/>
		<polygon class="st15" points="380.6,332.4 375.2,340.2 383.6,340.3 		"/>
		<polygon class="st19" points="364.5,312.6 340.5,303.1 359.9,319.4 		"/>
		<polygon class="st18" points="340.5,303.1 327.4,330.8 359.9,319.4 		"/>
		<polygon class="st19" points="327.4,330.8 355,314.7 351.4,325.6 		"/>
		<g>
			<polygon class="st51" points="403.4,196.4 387.3,180.2 389.2,192.1 			"/>
			<polygon class="st52" points="406.4,147 421.8,153 419.2,139.8 			"/>
			<polygon class="st53" points="406.4,147 392.4,134.6 419.2,139.8 			"/>
			<polygon class="st53" points="406.4,147 396.2,152.3 392.4,134.6 			"/>
			<polygon class="st38" points="392.4,134.6 379.6,153.6 396.2,152.3 			"/>
			<polygon class="st54" points="387.3,180.2 391,165.3 402.8,177.4 			"/>
			<polygon class="st55" points="387.3,180.2 402.8,196.4 402.8,177.4 			"/>
			<polygon class="st55" points="387.3,180.2 384.5,166.9 391,165.3 			"/>
			<polygon class="st54" points="402.8,177.4 410.3,169.7 399.8,167.3 391,165.3 			"/>
			<polygon class="st51" points="410.3,169.7 404.5,163.2 399.8,167.3 			"/>
			<polygon class="st56" points="398.6,162.2 404.5,163.2 399.8,167.3 			"/>
			<polygon class="st54" points="410.3,169.7 415.9,174.7 402.8,177.4 			"/>
			<polygon class="st54" points="415.9,174.7 417.9,180.5 411,181.9 			"/>
			<polygon class="st54" points="415.9,174.7 402.8,177.4 411,181.9 			"/>
			<polygon class="st54" points="411,181.9 408.3,186.7 402.8,196.4 402.8,177.4 			"/>
			<polygon class="st56" points="408.3,186.7 417.9,180.5 411,181.9 407.6,184 			"/>
			<polygon class="st56" points="417.9,180.5 408.3,186.7 417.5,185.6 418.9,183.2 			"/>
			<polygon class="st57" points="413.3,189.1 408.3,186.7 417.5,185.6 			"/>
			<polygon class="st51" points="422.6,181.1 417.9,180.5 418.9,183.2 417.5,185.6 416.8,195.9 			"/>
			<polygon class="st55" points="402.8,196.4 408.3,186.7 413.3,189.1 417.5,185.6 416.8,195.9 			"/>
			<polygon class="st58" points="410.3,169.7 409.6,160.8 404.5,163.2 			"/>
			<polygon class="st55" points="417.9,180.5 419.6,175.2 415.9,174.7 			"/>
			<polygon class="st58" points="409.6,160.8 415.9,174.7 410.3,169.7 			"/>
			<polygon class="st59" points="409.6,160.8 398.6,162.2 404.5,163.2 			"/>
			<polygon class="st54" points="409.6,160.8 406.4,147 396.2,152.3 			"/>
			<polygon class="st51" points="398.6,162.2 396.2,152.3 409.6,160.8 			"/>
			<polygon class="st56" points="391,165.3 396.2,152.3 399.8,167.3 			"/>
			<polygon class="st53" points="379.6,153.6 396.2,152.3 391,165.3 			"/>
			<polygon class="st53" points="379.6,153.6 378.9,177.3 384.5,166.9 			"/>
			<polygon class="st52" points="379.6,153.6 384.5,166.9 391,165.3 			"/>
			<polygon class="st52" points="378.9,177.3 387.3,180.2 384.5,166.9 			"/>
			<polygon class="st55" points="409.6,160.8 423.7,162.8 421.8,153 406.4,147 			"/>
			<polygon class="st54" points="409.6,160.8 415.9,174.7 419.6,175.2 416.8,168 414.3,161.4 			"/>
			<polygon class="st59" points="414.3,161.4 423.7,162.8 416.8,168 			"/>
			<polygon class="st51" points="416.8,168 421.2,170.4 423.7,162.8 			"/>
			<polygon class="st51" points="422.6,181.1 421.2,170.4 417.9,180.5 			"/>
			<polygon class="st55" points="419.6,175.2 421.2,170.4 416.8,168 			"/>
			<polygon class="st53" points="378.9,177.3 389.2,192.1 387.3,180.2 			"/>
			<polygon class="st53" points="379.6,153.6 385.9,144.1 372,152.5 			"/>
			<polygon class="st38" points="379.6,153.6 378.9,177.3 372,152.5 			"/>
			<polygon class="st52" points="370.9,165.6 378.9,177.3 372,152.5 			"/>
			<polygon class="st57" points="413.3,189.1 402.8,196.4 416.8,195.9 			"/>
		</g>
		<polygon class="st84" points="422.5,378.7 409.9,350.8 416.9,379.7 		"/>
		<polygon class="st10" points="434.5,362.6 407.6,349.9 431,374 		"/>
		<polygon class="st12" points="436.3,376.7 432.2,387.5 419.6,368 		"/>
		<polygon class="st13" points="436.3,376.7 434.5,362.6 419.6,368 		"/>
		<polygon class="st29" points="423.1,374.4 422.1,399.1 422.3,365.2 		"/>
		<polygon class="st8" points="432.2,387.5 422.1,399.1 421.6,368.5 		"/>
		<polygon class="st4" points="422.1,399.1 402.9,370.4 422.3,365.2 		"/>
		<polygon class="st5" points="422.1,399.1 387.8,423.6 415.2,386 		"/>
		<polygon class="st9" points="415.2,386 393,387.6 387.8,423.6 		"/>
		<polygon class="st85" points="415.2,386 402.9,370.4 393,387.6 		"/>
		<polygon class="st4" points="387.8,423.6 378.6,479.4 371.2,472.2 		"/>
		<polygon class="st10" points="378.6,479.4 396,457.9 393.7,480.5 		"/>
		<polygon class="st11" points="396,457.9 413.4,422.9 422.1,399.1 		"/>
		<polygon class="st10" points="422.1,399.1 387.8,423.6 396,457.9 		"/>
		<polygon class="st25" points="387.8,423.6 396,457.9 378.6,479.4 		"/>
		<polygon class="st14" points="321.6,353.7 347.2,350.9 396,331.4 349.8,336.6 		"/>
		<polygon class="st24" points="321.6,353.7 322.7,341.8 349.8,336.6 		"/>
		<polygon class="st27" points="349.8,336.6 327.4,330.8 322.7,341.8 		"/>
		<polygon class="st14" points="349.8,336.6 351.4,325.6 327.4,330.8 		"/>
		<polygon class="st25" points="329.2,369.4 347.2,350.9 321.6,353.7 		"/>
		<polygon class="st24" points="329.2,369.4 348.1,372.7 347.2,350.9 		"/>
		<polygon class="st23" points="349.8,336.6 396,331.4 351.4,325.6 		"/>
		<polygon class="st7" points="347.2,350.9 407.6,349.9 396,331.4 		"/>
		<polygon class="st29" points="348.1,372.7 407.6,349.9 347.2,350.9 		"/>
		<polygon class="st4" points="407.6,349.9 420.7,345.8 396,331.4 		"/>
		<polygon class="st5" points="407.6,349.9 434.5,362.6 418.1,370.6 		"/>
		<polygon class="st9" points="407.6,349.9 420.7,345.8 434.5,362.6 		"/>
		<polygon class="st13" points="348.1,372.7 407.6,349.9 401.9,369.9 		"/>
		<polygon class="st24" points="401.9,369.9 407.6,349.9 418.1,370.6 		"/>
		<polygon class="st14" points="292.8,194.1 259.4,205.5 268.3,220.9 		"/>
		<polygon class="st5" points="338.5,228.9 295.6,214.7 318.9,212.7 		"/>
		<polygon class="st5" points="268.3,220.9 295.6,214.7 289.6,197.7 		"/>
		<polygon class="st5" points="322,198.5 348.5,224.7 338.5,228.9 		"/>
		<path class="st86" d="M460.1,227.5c-2.3,2-6.1,2.1-8.4,0.2s-2.5-5.2-0.2-7.3c2.3-2,6.1-2.1,8.4-0.2
			C462.3,222.2,462.3,225.5,460.1,227.5z"/>
		<polygon class="st4" points="483.5,189.8 486.1,204 462.3,215.3 472,203.6 		"/>
		<polygon class="st87" points="457.9,197.3 462.3,215.3 472,203.6 		"/>
		<polygon class="st24" points="457.9,197.3 462.3,215.3 451.2,220.6 		"/>
		<path class="st64" d="M460.1,227.5c-2.3,2-6.1,2.1-8.4,0.2s-2.5-5.2-0.2-7.3c2.3-2,6.1-2.1,8.4-0.2
			C462.3,222.2,462.3,225.5,460.1,227.5z"/>
		<polygon class="st24" points="449.5,233.7 470,255.2 462,224.4 		"/>
		<polygon class="st86" points="449.5,233.7 449.6,223.6 462,224.4 		"/>
		<path class="st64" d="M460.1,227.5c-2.3,2-6.1,2.1-8.4,0.2s-2.5-5.2-0.2-7.3c2.3-2,6.1-2.1,8.4-0.2
			C462.3,222.2,462.3,225.5,460.1,227.5z"/>
		<polygon class="st81" points="470.3,272.7 445.6,276.2 455.6,291.4 		"/>
		<polygon class="st80" points="470.3,272.7 445.6,276.2 442.6,258.7 		"/>
		<polygon class="st7" points="470.3,272.7 470,255.2 442.6,258.7 		"/>
		<polygon class="st8" points="449.5,233.7 470,255.2 442.6,258.7 		"/>
		<polygon class="st13" points="449.5,233.7 470,255.2 462,224.4 		"/>
		<polygon class="st12" points="449.5,233.7 449.6,223.6 462,224.4 		"/>
		<polygon class="st13" points="483.5,189.8 486.1,204 462.3,215.3 472,203.6 		"/>
		<polygon class="st7" points="457.9,197.3 462.3,215.3 472,203.6 		"/>
		<polygon class="st13" points="457.9,197.3 462.3,215.3 451.2,220.6 		"/>
		<polygon class="st12" points="460.7,227.4 486.1,204 451.2,220.6 		"/>
		<g>
			<g>
				<polygon class="st4" points="315.5,444.1 277.6,423.5 299.1,419.5 				"/>
				<polygon class="st5" points="315.5,444.1 286.7,448.7 277.6,423.5 				"/>
				<polygon class="st45" points="315.5,444.1 251.5,493.7 286.7,448.7 				"/>
				<polygon class="st27" points="286.7,448.7 245.6,471.1 277.6,423.5 				"/>
				<polygon class="st24" points="286.7,448.7 252.2,493.2 245.6,471.1 				"/>
				<polygon class="st48" points="252.2,493.2 222.1,495.9 241,514.1 				"/>
				<polygon class="st70" points="241,514.1 215.3,521.1 231.9,538.8 				"/>
				<polygon class="st71" points="231.9,538.8 224.2,539.8 215.3,521.1 				"/>
				<polygon class="st71" points="241,514.1 215.3,521.1 219.5,502.6 				"/>
				<polygon class="st72" points="241,514.1 219.5,502.6 222.1,495.9 				"/>
				<polygon class="st75" points="252.2,493.2 222.1,495.9 245.6,471.1 				"/>
				<polygon class="st78" points="245.6,471.1 226,468 239.9,478.6 				"/>
				<polygon class="st78" points="239.9,478.6 221.4,485.6 222.1,495.9 				"/>
				<polygon class="st48" points="239.9,478.6 221.4,485.6 226,468 				"/>
			</g>
		</g>
		<polygon class="st5" points="245.6,471.1 239.3,478.7 239.3,490.8 252.2,493.2 		"/>
	</g>
</g>
<g id="pencil">
</g>
</svg>
